<?xml version="1.0" encoding="utf-8"?>
<!-- Generator: Adobe Illustrator 22.0.1, SVG Export Plug-In . SVG Version: 6.00 Build 0)  -->
<svg version="1.1" id="Capa_3" xmlns="http://www.w3.org/2000/svg" xmlns:xlink="http://www.w3.org/1999/xlink" x="0px" y="0px"
	 viewBox="0 0 200 200" style="enable-background:new 0 0 200 200;" xml:space="preserve">
<style type="text/css">
	.st0{fill:#00B4D1;}
</style>
<g>
	<path class="st0" d="M196.3,42.9L164,10.6c-5-5-13-5-17.9,0c-5,5-5,13,0,17.9l10.7,10.7h-26.3c-11,0-21.5,5.5-28.9,15.2L94.2,64
		C90,69.6,91,77.5,96.6,81.8c2.3,1.7,5,2.6,7.7,2.6c3.8,0,7.6-1.7,10.1-5l7.4-9.7c2.6-3.3,5.6-5.2,8.7-5.2h26.3l-10.7,10.7
		c-5,4.9-5,13,0,17.9c2.5,2.5,5.7,3.7,9,3.7c3.2,0,6.5-1.2,9-3.7l32.3-32.3c2.5-2.5,3.7-5.7,3.7-9C200,48.6,198.8,45.3,196.3,42.9z"
		/>
	<path class="st0" d="M196.3,138.4L164,106.1c-5-5-13-5-17.9,0c-5,4.9-5,13,0,17.9l10.7,10.7h-26.3c-3,0-6.1-1.8-8.7-5.2L64.3,54.3
		c-7.4-9.6-17.9-15.2-28.8-15.2H12.7C5.7,39.1,0,44.8,0,51.8s5.7,12.7,12.7,12.7h22.7c3.1,0,6.1,1.8,8.7,5.2l57.5,75.2
		c7.4,9.6,17.9,15.2,28.8,15.2h26.3L146,170.8c-5,4.9-5,13,0,17.9c2.5,2.5,5.7,3.7,9,3.7c3.2,0,6.5-1.2,9-3.7l32.3-32.3
		c2.5-2.5,3.7-5.7,3.7-9C200,144.1,198.8,140.9,196.3,138.4z"/>
	<path class="st0" d="M69.1,117.8c-5.6-4.2-13.5-3.2-17.8,2.3l-7.2,9.4c-2.6,3.3-5.6,5.2-8.7,5.2H12.7c-7,0-12.7,5.7-12.7,12.7
		s5.7,12.7,12.7,12.7h22.7c11,0,21.5-5.5,28.8-15.1l7.2-9.4C75.7,130,74.6,122,69.1,117.8z"/>
</g>
</svg>
