<?xml version="1.0" encoding="utf-8"?>
<!-- Generator: Adobe Illustrator 22.0.1, SVG Export Plug-In . SVG Version: 6.00 Build 0)  -->
<svg version="1.1" id="Capa_2_1_" xmlns="http://www.w3.org/2000/svg" xmlns:xlink="http://www.w3.org/1999/xlink" x="0px" y="0px"
	 viewBox="0 0 200 200" style="enable-background:new 0 0 200 200;" xml:space="preserve">
<style type="text/css">
	.st0{fill:#FF8300;}
</style>
<g>
	<path class="st0" d="M100,0.2C45.2,0.2,0.6,44.8,0.6,99.6S45.2,199,100,199s99.4-44.6,99.4-99.4S154.8,0.2,100,0.2z M100,175.7
		c-42,0-76.1-34.1-76.1-76.1S58,23.5,100,23.5s76.1,34.1,76.1,76.1S142,175.7,100,175.7z"/>
	<path class="st0" d="M134,120.1c-9.1,9.1-21.2,14.1-34,14.1s-24.9-5-34-14.1c-3-3-7.9-3-11,0c-3,3-3,7.9,0,11
		c12,12,28,18.6,45,18.6s33-6.6,45-18.6c3-3,3-7.9,0-11C141.9,117.1,137,117.1,134,120.1z"/>
	<path class="st0" d="M64.1,95.4c8.7,0,15.7-7.1,15.7-15.7C79.8,71,72.7,64,64.1,64c-8.7,0-15.7,7.1-15.7,15.7
		C48.4,88.4,55.4,95.4,64.1,95.4z"/>
	<path class="st0" d="M135.9,63.9c-8.7,0-15.7,7.1-15.7,15.7c0,8.7,7.1,15.7,15.7,15.7c8.7,0,15.7-7.1,15.7-15.7
		C151.6,71,144.6,63.9,135.9,63.9z"/>
</g>
</svg>
