<?xml version="1.0" encoding="utf-8"?>
<!-- Generator: Adobe Illustrator 22.0.1, SVG Export Plug-In . SVG Version: 6.00 Build 0)  -->
<svg version="1.1" xmlns="http://www.w3.org/2000/svg" xmlns:xlink="http://www.w3.org/1999/xlink" x="0px" y="0px"
	 viewBox="0 0 200 200" style="enable-background:new 0 0 200 200;" xml:space="preserve">
<style type="text/css">
	.st0{fill:#446FB2;}
</style>
<g id="Capa_2">
	<g>
		<path class="st0" d="M189.1,122.9c-5.8,0-10.6,4.7-10.6,10.6v45.4H21.5v-45.4c0-5.8-4.7-10.6-10.6-10.6s-10.6,4.7-10.6,10.6v56
			c0,5.8,4.7,10.6,10.6,10.6h178.2c5.8,0,10.6-4.7,10.6-10.6v-56C199.7,127.6,194.9,122.9,189.1,122.9z"/>
		<path class="st0" d="M92.6,140.5c2.1,2,4.7,3.1,7.4,3.1c3.5,0,6.3-1.8,7.5-3.1l49.3-49.2c4.1-4.1,4.1-10.8,0-14.9
			c-2-2-4.7-3.1-7.5-3.1c-2.8,0-5.5,1.1-7.5,3.1l-31.3,31.2V10.6c0-5.8-4.7-10.6-10.6-10.6S89.5,4.8,89.5,10.6v96.8L58.2,76.2
			c-2-2-4.7-3.1-7.5-3.1c-2.8,0-5.5,1.1-7.5,3.1c-4.1,4.1-4.1,10.8,0,14.9L92.6,140.5z"/>
	</g>
</g>
<g id="Capa_3">
</g>
</svg>
