<svg xmlns="http://www.w3.org/2000/svg" viewBox="0 0 14.66 12.27"><defs><style>.cls-1{fill:#dadada;}</style></defs><title>escala</title><g id="Capa_2" data-name="Capa 2"><g id="Capa_2-2" data-name="Capa 2"><g id="hover-sueldo"><path class="cls-1" d="M-85.76-289v-6h1.16a.55.55,0,0,0,.53-.26.55.55,0,0,0-.11-.59l-2.88-3.83a.73.73,0,0,0-.57-.3.73.73,0,0,0-.57.3l-2.88,3.83a.55.55,0,0,0-.11.59.55.55,0,0,0,.53.26h1.16v6h-2.59v-2.47h1.15a.55.55,0,0,0,.54-.26.55.55,0,0,0-.11-.59l-2.88-3.82a.72.72,0,0,0-.57-.31.7.7,0,0,0-.57.31l-2.88,3.82a.53.53,0,0,0-.11.59.53.53,0,0,0,.53.26h1.16V-289h-1.51a.66.66,0,0,0-.66.66.66.66,0,0,0,.66.66H-84a.66.66,0,0,0,.65-.66A.66.66,0,0,0-84-289Z" transform="translate(98 300)"/></g></g></g></svg>