<svg xmlns="http://www.w3.org/2000/svg" viewBox="0 0 54.19 23.59"><defs><style>.cls-1{fill:#ca93f3;}</style></defs><title>icoAuto</title><g id="Capa_2" data-name="Capa 2"><g id="ficha-mi"><path class="cls-1" d="M52.19,9.14c-1-.33-7.92-1.85-7.92-1.85S31.44,0,29.91,0H17.81c-2.58,0-4.74,2-7.24,4.25a46.06,46.06,0,0,1-3.91,3.3l-5.33.71A1.92,1.92,0,0,0,0,10.08v6.11A1.91,1.91,0,0,0,1.91,18.1H5.58a6,6,0,0,0,12,0H35.05a6,6,0,0,0,12,0h3c2.38,0,3.55-1,3.84-2C54.61,13.66,54.08,9.77,52.19,9.14ZM11.56,20.69a3.11,3.11,0,1,1,3.11-3.11A3.11,3.11,0,0,1,11.56,20.69ZM23.11,7.29H12.67c.76-.59,1.46-1.22,2.1-1.81,1.69-1.54,3.15-2.87,4.9-2.87h3.44V7.29ZM25.65,2.6h3C30.11,2.6,36,6,38.14,7.29H25.65V2.6ZM41,20.69a3.11,3.11,0,1,1,3.12-3.11A3.12,3.12,0,0,1,41,20.69Z"/></g></g></svg>