<svg xmlns="http://www.w3.org/2000/svg" viewBox="0 0 14.82 19.95"><defs><style>.cls-1{fill:#ffcb00;}</style></defs><title>icoAdministracion</title><g id="Capa_2" data-name="Capa 2"><g id="detalle"><path class="cls-1" d="M12.9,0h-11A1.92,1.92,0,0,0,0,1.92V18A1.92,1.92,0,0,0,1.92,20h11A1.92,1.92,0,0,0,14.82,18V1.92A1.92,1.92,0,0,0,12.9,0ZM2.63,3.32a.58.58,0,0,1,.59-.59h8.39a.58.58,0,0,1,.58.59V4.47a.59.59,0,0,1-.58.59H3.22a.59.59,0,0,1-.59-.59Zm2,13.12A.58.58,0,0,1,4,17H3.22a.58.58,0,0,1-.59-.59v-.55a.59.59,0,0,1,.59-.59H4a.59.59,0,0,1,.59.59ZM4.6,13a.58.58,0,0,1-.59.59H3.22A.58.58,0,0,1,2.63,13v-.55a.59.59,0,0,1,.59-.59H4a.59.59,0,0,1,.59.59Zm3.84,3.46a.58.58,0,0,1-.58.59h-.8a.59.59,0,0,1-.59-.59v-.55a.6.6,0,0,1,.59-.59h.8a.59.59,0,0,1,.58.59Zm0-3.46a.58.58,0,0,1-.58.59h-.8A.59.59,0,0,1,6.47,13v-.55a.6.6,0,0,1,.59-.59h.8a.59.59,0,0,1,.58.59Zm0-3.46a.58.58,0,0,1-.58.59H3.22a.58.58,0,0,1-.59-.59V9a.58.58,0,0,1,.59-.58H7.86A.58.58,0,0,1,8.44,9Zm3.85,6.92a.58.58,0,0,1-.59.59h-.8a.58.58,0,0,1-.58-.59v-.55a.59.59,0,0,1,.58-.59h.8a.59.59,0,0,1,.59.59Zm0-3.46a.58.58,0,0,1-.59.59h-.8a.58.58,0,0,1-.58-.59v-.55a.59.59,0,0,1,.58-.59h.8a.59.59,0,0,1,.59.59Zm0-3.46a.58.58,0,0,1-.59.59h-.8a.58.58,0,0,1-.58-.59V9a.58.58,0,0,1,.58-.58h.8a.58.58,0,0,1,.59.58Z"/></g></g></svg>