<svg xmlns="http://www.w3.org/2000/svg" viewBox="0 0 21.74 18.62"><defs><style>.cls-1{fill:#ffcb00;}</style></defs><title>icoAlbanileria</title><g id="Capa_2" data-name="Capa 2"><g id="detalle"><path class="cls-1" d="M16,14.45,21.53,3.29s0,0,0,0A2.32,2.32,0,0,0,18.94.05h0l-12,3.15A1.93,1.93,0,0,0,5.49,4.49a1.77,1.77,0,0,0,.3,1.69L8.85,9.93l3.4-2.77a.79.79,0,0,1,1.1.11.77.77,0,0,1-.12,1.09l-3.4,2.78,3.06,3.75a1.78,1.78,0,0,0,1.59.64A1.94,1.94,0,0,0,16,14.45Z"/><path class="cls-1" d="M7.15,11.31l-.59-.72a.78.78,0,0,0-1.1-.12L.85,14.23a2.31,2.31,0,0,0-.33,3.25l.24.29A2.3,2.3,0,0,0,4,18.1l4.61-3.76a.78.78,0,0,0,.11-1.09l-.59-.73,1.69-1.38-1-1.21Z"/></g></g></svg>