<svg xmlns="http://www.w3.org/2000/svg" viewBox="0 0 21.24 21.17"><defs><style>.cls-1{fill:#ffcb00;}</style></defs><title>icoAyudante</title><g id="Capa_2" data-name="Capa 2"><g id="detalle"><path class="cls-1" d="M21.1,3.29A.13.13,0,0,0,21,3.17c-.06,0-.12,0-.14,0L18.2,5.81,15.44,3.05,18.11.38a.13.13,0,0,0,0-.2s0,0-.06,0a6.24,6.24,0,0,0-5.61,1.54,4.12,4.12,0,0,0-.83,4.18c0,.15.06.33.09.44-.95,1-4.38,4.3-5.44,5.31l-.39-.09a4,4,0,0,0-4.18.8A6.12,6.12,0,0,0,.15,17.88.15.15,0,0,0,.32,18a.1.1,0,0,0,.06,0l2.67-2.61,2.76,2.75L3.14,20.78a.14.14,0,0,0,0,.21s0,0,.06,0a6.26,6.26,0,0,0,1.31.15,6.12,6.12,0,0,0,4.3-1.72,4.14,4.14,0,0,0,.83-4.18c0-.15-.06-.33-.09-.45.95-1,4.38-4.29,5.44-5.3l.39.09a4,4,0,0,0,4.18-.77A6.24,6.24,0,0,0,21.1,3.29Z"/></g></g></svg>