<svg xmlns="http://www.w3.org/2000/svg" viewBox="0 0 35.59 35.59"><defs><style>.cls-1{fill:#24ebbb;}</style></defs><title>icoBalon</title><g id="Capa_2" data-name="Capa 2"><g id="ficha-mi"><path class="cls-1" d="M35.55,16.86a17.77,17.77,0,0,0-33.09-8A17.54,17.54,0,0,0,.14,15.64,19.27,19.27,0,0,0,0,17.8,17.63,17.63,0,0,0,3.48,28.31,17.74,17.74,0,0,0,17.8,35.59a17.62,17.62,0,0,0,7.47-1.67A17.78,17.78,0,0,0,35.59,17.8C35.59,17.48,35.56,17.17,35.55,16.86Zm-3.62,0-3.66,6.33,2.42,4.18a16.27,16.27,0,0,1-6.28,5.07l-1.83-3.18H15.26L13,33.15a16.16,16.16,0,0,1-8.5-6.31L7.32,22,3.66,15.64H1.88A16,16,0,0,1,4.46,8.82H9.58l3.66-6.34-.05-.08a16,16,0,0,1,4.61-.68,16.52,16.52,0,0,1,3.39.36l-.23.4,3.66,6.34h6.51a16,16,0,0,1,2.7,8Z"/><polygon class="cls-1" points="14.14 11.24 10.48 17.58 14.14 23.92 21.45 23.92 25.11 17.58 21.45 11.24 14.14 11.24"/></g></g></svg>