<?xml version="1.0" encoding="utf-8"?>
<!-- Generator: Adobe Illustrator 19.0.0, SVG Export Plug-In . SVG Version: 6.00 Build 0)  -->
<svg version="1.1" id="Capa_1" xmlns="http://www.w3.org/2000/svg" xmlns:xlink="http://www.w3.org/1999/xlink" x="0px" y="0px"
	 viewBox="0 0 33.7 90.6" style="enable-background:new 0 0 33.7 90.6;" xml:space="preserve">
<style type="text/css">
	.st0{fill:#F5D932;}
</style>
<path class="st0" d="M33.7,48.9c0.1-2.1-0.2-6.3-0.3-7.7c-0.1-1.4,0.1-2.8-0.6-4.7s-0.5-5.9-1-8.6c-0.5-2.6,0.1-9.3-8.4-11.8
	c0,0-3.3-0.1-3.2-4.8c0,0,3,0.7,1.1-2.1c0,0,1.7-0.9,0.3-2.5c0,0,1.5-1.6-0.5-3c0,0-0.3-2.6-2.7-3.1c0,0-1.9-1.3-3.4,0
	c0,0-2.9,0.3-2.9,2.8c0,0-2.1,1.4-0.4,3.1c0,0-1,0.9-0.8,1.6c0.2,0.8,0.8,1,0.8,1s-0.8,0.8-0.5,1.5c0.3,0.7,1.9,0.4,1.9,0.4
	s-0.1,2.7-0.5,3.7s-2.1,1.5-3.5,2S3.5,19.4,2.7,23S1.3,30.6,1.4,33s-0.5,2.8-0.6,3.4c-0.1,0.6-0.9,5.7-0.8,8
	c0.1,2.3-0.3,4.9,0.3,7.2s0.8,2.3,1.2,2.3s0.8-0.5,0.6-1.8c-0.2-1.4,0.3-2,0.3-2s0.4-0.3,0.3,0.9c-0.1,1.2,0.1,1.2,0.3,1
	c0.2-0.2,0.6-1.2,0.4-2.2s-0.6-3-0.5-3.9C2.9,45,4.6,40.5,5,39.6s1.8-3.4,1.8-4.8c0,0-0.2,5.2-0.8,6.8S4.2,47.5,4.3,53
	c0.1,5.5,1.3,11.3,1.4,13.1c0,1.7-0.1,7.5-0.1,7.5s0,2.3,1.1,5.3c1,3,3.2,8.1,3.2,8.1s0.4,0.5,0.1,1.1c-0.2,0.4-0.5,1.2-0.7,1.8
	c-0.1,0.3,0.1,0.7,0.5,0.7h4.7c0.4,0,0.6-0.4,0.5-0.8l-1.3-2.4c0,0-0.2-0.9,0-1.6c0.2-0.7,1.7-5,1.5-8.5s-0.5-9.8-0.5-9.8
	s0.6-2.4,0.7-3.6c0.1-1.1,1.1-5.9,1.2-7.9c0-0.2,0.1-0.3,0.3-0.3l0,0c0.2,0,0.3,0.1,0.4,0.3c0.1,1.2,0.3,5,0.6,5.8
	c0.4,0.9,1.2,5.2,1.1,6.7s-0.2,9.2-0.2,10.2c0,1,0.8,6.1,1.2,6.8c0.4,0.7,0.3,1.4,0.3,1.4s-0.5,1.3-0.8,1.7
	c-0.3,0.4-0.6,0.7-0.9,1.5c-0.1,0.3,0.1,0.6,0.5,0.6h5.1c0.4,0,0.6-0.3,0.5-0.7c-0.2-0.5-0.4-1.2-0.7-1.8c-0.2-0.4-0.2-0.9,0-1.3
	l3.5-9c0,0,0.8-2.9,0.6-5.1c-0.1-2.2,0-9.8,0.4-12.4s1.8-10.9,0.6-14.6c-1.1-3.5-2.6-8.3-2.4-10.8c0,0,2.2,5.4,3,7.4
	c0.9,2,1.5,4.2,1.1,5.7c0,0-0.3,0.9-0.3,2.3c0,1.3,0,1.9,0.3,1.9c0.2,0.1,0.3-0.1,0.3-0.8c0-0.7-0.1-1.1,0.1-1.1
	c0.2,0,0.5,0.2,0.4,0.8c0,0.6,0,1.8,0,2.4s0.7,0.7,1,0.2C32.9,53.3,33.7,51.6,33.7,48.9z"/>
</svg>
