<svg xmlns="http://www.w3.org/2000/svg" viewBox="0 0 50.06 30.33"><defs><style>.cls-1{fill:#24ebbb;}</style></defs><title>icoComida</title><g id="Capa_2" data-name="Capa 2"><g id="ficha-mi"><path class="cls-1" d="M6.16,7.65l.71-.25c2.79-1,5.16-1,7.05-.12A11.22,11.22,0,0,1,16.1,8.7,16,16,0,0,0,19.74,11a10.2,10.2,0,0,0,6.49.15,17.67,17.67,0,0,0,4-1.73A17.87,17.87,0,0,0,21.8,1.7C13.56-2,4.28.62,1.08,7.67l0,0a4.78,4.78,0,0,0,2,.64A8.48,8.48,0,0,0,6.16,7.65Zm18,.45A1.1,1.1,0,1,1,23.08,7,1.09,1.09,0,0,1,24.18,8.1ZM21.43,3.17a1.09,1.09,0,1,1-1.1,1.09A1.09,1.09,0,0,1,21.43,3.17ZM18,5.17a1.1,1.1,0,1,1-1.09,1.09A1.09,1.09,0,0,1,18,5.17ZM6,3.73A1.1,1.1,0,1,1,4.89,4.82,1.09,1.09,0,0,1,6,3.73Z"/><path class="cls-1" d="M36.62,16.15a14.1,14.1,0,0,1-5.28-4.92,20.69,20.69,0,0,1-4.54,2,14.08,14.08,0,0,1-3.75.53A11,11,0,0,1,19,13a17.65,17.65,0,0,1-4.07-2.53A10,10,0,0,0,13,9.2c-1.38-.63-3.22-.56-5.48.21-.23.07-.45.15-.68.24A10,10,0,0,1,3,10.46,6.63,6.63,0,0,1,.37,9.73c-1.66,6.62,2.36,14.1,9.82,17.49a17.52,17.52,0,0,0,13.74.54l.29-.06A86,86,0,0,1,34,25.06a2.47,2.47,0,0,0,2-1.51l1.68-5.39A1.69,1.69,0,0,0,36.62,16.15Z"/><path class="cls-1" d="M49.52,18.78a4.58,4.58,0,0,0-8,.23l-2-.5L37.92,25l1.89.47a4.47,4.47,0,0,0,.63,2.64,4.6,4.6,0,0,0,6.29,1.59c1.82-1.1,2.28-3.49,1.7-5.45A4.41,4.41,0,0,0,49.52,18.78ZM46.71,23l-1.33.4.91,1.2a2.22,2.22,0,0,1-3.82,2.25,2.19,2.19,0,0,1-.16-1.9l.45-1.23-2-.49.47-1.88,1.89.48.26-1.2a2.15,2.15,0,0,1,1-1.44A2.22,2.22,0,1,1,46.71,23Z"/></g></g></svg>