<svg xmlns="http://www.w3.org/2000/svg" viewBox="0 0 27.85 24.11"><defs><style>.cls-1{fill:#61e1ff;}</style></defs><title>icoCampoAzul</title><g id="Capa_2" data-name="Capa 2"><g id="detalle"><path class="cls-1" d="M26.42,21.24h-3.9V19h1.11a.72.72,0,0,0,0-1.43H20A.72.72,0,0,0,20,19h1.11v2.21H9.63V16.29h5.73a.73.73,0,0,0,.66-.44.71.71,0,0,0-.14-.77l-3.64-3.91h1.69a.71.71,0,0,0,.65-.43.72.72,0,0,0-.13-.78L11.1,6.35h1.68a.72.72,0,0,0,.66-.43.71.71,0,0,0-.14-.77L8.72.22a.74.74,0,0,0-1.05,0L3.09,5.15A.73.73,0,0,0,3,5.92a.7.7,0,0,0,.66.43H5.3L2,10a.72.72,0,0,0-.14.78.73.73,0,0,0,.66.43H4.15L.51,15.08a.73.73,0,0,0-.13.77.71.71,0,0,0,.66.44H6.77v4.95H1.43a1.44,1.44,0,0,0,0,2.87h25a1.44,1.44,0,0,0,0-2.87Z"/></g></g></svg>