<?xml version="1.0" encoding="utf-8"?>
<!-- Generator: Adobe Illustrator 19.0.0, SVG Export Plug-In . SVG Version: 6.00 Build 0)  -->
<svg version="1.1" id="Capa_1" xmlns="http://www.w3.org/2000/svg" xmlns:xlink="http://www.w3.org/1999/xlink" x="0px" y="0px"
	 viewBox="0 0 100 100" style="enable-background:new 0 0 100 100;" xml:space="preserve">
<style type="text/css">
	.st0{fill:#CFA335;}
</style>
<path id="XMLID_1_" class="st0" d="M70.2,50l25.7-25.7c5.5-5.5,5.5-14.6,0-20.1C93.2,1.5,89.6,0,85.8,0C82,0,78.4,1.5,75.7,4.2
	L50,29.8L24.4,4.2C21.7,1.5,18.1,0,14.3,0C10.5,0,6.9,1.5,4.3,4.2c-5.5,5.5-5.5,14.6,0,20.1L29.9,50L4.3,75.6
	c-5.5,5.5-5.5,14.6,0,20.1c2.7,2.7,6.3,4.2,10.1,4.2c3.8,0,7.4-1.5,10.1-4.2L50,70.1l25.7,25.7c2.7,2.7,6.3,4.2,10.1,4.2
	c3.8,0,7.4-1.5,10.1-4.2c5.5-5.5,5.5-14.6,0-20.1L70.2,50z"/>
</svg>
