<svg xmlns="http://www.w3.org/2000/svg" viewBox="0 0 29.56 29.56"><defs><style>.cls-1{fill:#ca93f3;}</style></defs><title>icoCaceria</title><g id="Capa_2" data-name="Capa 2"><g id="ficha-mi"><path class="cls-1" d="M28.32.08,23.41,2.53a.88.88,0,0,0-.48.78V5.4L9.73,18.61,6.55,17.55a.87.87,0,0,0-.88.21L.76,22.66A.87.87,0,0,0,1.1,24.1l3.27,1.09,1.09,3.27a.87.87,0,0,0,1.43.34l4.91-4.91A.88.88,0,0,0,12,23L11,19.83,24.16,6.63h2.09A.88.88,0,0,0,27,6.15l2.45-4.91A.9.9,0,0,0,28.32.08Z"/><path class="cls-1" d="M24.07,25.12a2.56,2.56,0,0,0-.37-.3A14.82,14.82,0,0,0,22,11.2l-3.69,3.69a18.61,18.61,0,0,1,2.94,9.65l-.18.08-6.24-6.25L13.64,19.6l6.25,6.24a2.6,2.6,0,1,0,4.18-.72Z"/><path class="cls-1" d="M14.67,11.21l3.69-3.69A14.79,14.79,0,0,0,4.74,5.86a3.47,3.47,0,0,0-.3-.37,2.6,2.6,0,1,0-.73,4.18L10,15.92l1.23-1.23L4.94,8.45A1.42,1.42,0,0,0,5,8.27,18.61,18.61,0,0,1,14.67,11.21Z"/></g></g></svg>