<svg xmlns="http://www.w3.org/2000/svg" viewBox="0 0 33.42 24.9"><defs><style>.cls-1{fill:#9c9b9b;}.cls-2{fill:#006139;}.cls-3{fill:#fff;}.cls-4{fill:#6f6259;}</style></defs><title>icoCasas</title><g id="Capa_2" data-name="Capa 2"><g id="filtro"><path class="cls-1" d="M.56,21.76A14.86,14.86,0,0,1,2,21.58l-2,.57a10.79,10.79,0,0,0,1.73,0l-.94.27a1.26,1.26,0,0,0,.84,0c.49-.13,1.72-.22,2-.37a11,11,0,0,0,2,.87c.15-.07.71.06,1.17-1.82,0,0,2.2,2.41,4.81,2.51a7.42,7.42,0,0,0,3-.93s-.12,1.29.48,1.42c0,0,.54.47.8-1.52,0,0,0-.16,0-.34,0,.1,0,.23.09.36a7.6,7.6,0,0,1,1.43-.11l-.85-.18,1.8-.1-2-.1,1-.23-1.05,0,.14-.28a5.68,5.68,0,0,0,1.18,0,2.5,2.5,0,0,0,1.28-1.75c.08-.77-1.63-.64-2-.67l-.81.44a1.74,1.74,0,0,1-1.35-.23,5,5,0,0,1-.66-.58,14.27,14.27,0,0,1,1-1,4.25,4.25,0,0,0,1.92-.87L16,17a5.13,5.13,0,0,0,1.54-1,14.25,14.25,0,0,1-1.47.6A9.72,9.72,0,0,0,17,15.32l-1.31,1,.86-1.1s-1.1.82-1.26.89.36-.68.42-1c0,0,.07-.25-.7.7s-.8,1.23-.8,1.23-1.65.65-1.68,1.49c0,.52.62,1.16.62,1.16a3,3,0,0,1-2.48.51A9.66,9.66,0,0,1,8.59,19s0-.33-.18-.39c0,0,2-.8,1.75-1.56s-.63-1.72-.63-1.72.58-1.76.71-2.31l-.09-.22-.74,1.65a7.87,7.87,0,0,0,.26-2l-.48,1.84s0-1.52,0-2L9,13.68s-.21-.86-.27-1.13a4.15,4.15,0,0,0,0,1.08s-.2.08-.36-.6c0,0-.18.18,0,1a3.82,3.82,0,0,0,.08.69A3.65,3.65,0,0,0,8.73,16a2.54,2.54,0,0,1,.27.8,7.45,7.45,0,0,0-1.9.59L7,17.28a1.62,1.62,0,0,1-.5-.72c-.06-.15-.11-.29-.16-.44A12,12,0,0,1,11.63,2l.14-.08A11.93,11.93,0,0,1,18.28.34l.42-.2a15.68,15.68,0,0,0-5.07.13,14.43,14.43,0,0,0-5,2.19,12.83,12.83,0,0,0-4,13.82,9.38,9.38,0,0,0,1.13,3.48,6.29,6.29,0,0,0-.32,1c-.07.44-.2.61-.64.41A6.39,6.39,0,0,0,3.15,21a3.36,3.36,0,0,1-1.85-.46s-.2.27.46.48L.51,21s.79.23,1.29.33l-1.74.32S-.15,21.89.56,21.76Z"/><path class="cls-2" d="M17.33,22.48l.34.07A1,1,0,0,0,17.33,22.48Z"/><path class="cls-3" d="M6,18s3.45,4.47,5.67,4.11a17.29,17.29,0,0,0,4.05-1.22s.34-.4-.94.07-3.49,1.74-5.47,0S6.26,17.85,6,18Z"/><path class="cls-3" d="M6.57,21a2.07,2.07,0,0,1-.65-1.06s.39.73.69.87Z"/><path class="cls-3" d="M7.17,17.5s.21.86.8,1C8,18.48,7.24,18,7.17,17.5Z"/><path class="cls-3" d="M14.82,22.42l.74-.33A1.08,1.08,0,0,1,14.82,22.42Z"/><path class="cls-4" d="M32.86,3.14a14.86,14.86,0,0,1-1.48.18l2-.56a10.21,10.21,0,0,0-1.73,0l.93-.27a1.22,1.22,0,0,0-.83,0c-.49.14-1.73.22-2,.37A10.89,10.89,0,0,0,27.85,2c-.16.07-.71-.06-1.17,1.82,0,0-2.66-2.59-4.81-2.51a9.26,9.26,0,0,0-3,.94S19,.94,18.36.81c0,0-.54-.47-.81,1.52a2,2,0,0,1,.05.34,2,2,0,0,0-.08-.36,6.83,6.83,0,0,1-1.44.11l.86.18-1.81.1,2,.1-1,.23,1,0-.14.28a5.75,5.75,0,0,0-1.19,0,2.54,2.54,0,0,0-1.27,1.75c-.08.77,1.63.65,2,.67,0,0,.49-.28.8-.44a1.76,1.76,0,0,1,1.36.23,5.86,5.86,0,0,1,.66.58,14.27,14.27,0,0,1-1,1,4.25,4.25,0,0,0-1.92.87l.88-.12a5,5,0,0,0-1.53,1,14.89,14.89,0,0,1,1.46-.6,9.85,9.85,0,0,0-.92,1.21l1.31-1-.87,1.1s1.11-.82,1.27-.89-.36.68-.42,1c0,0-.07.25.7-.69s.79-1.24.79-1.24,1.65-.7,1.69-1.49c0-.52-.63-1.16-.63-1.16a5.08,5.08,0,0,1,2.49-.51A5,5,0,0,1,24.83,5.9s0,.33.18.39c0,0-2,.8-1.75,1.56s.62,1.72.62,1.72-.57,1.77-.7,2.31l.09.22L24,10.45a7.45,7.45,0,0,0-.26,2l.48-1.83s0,1.51,0,2l.19-1.4s.21.86.27,1.13a4.15,4.15,0,0,0,0-1.08s.2-.08.36.6c0,0,.17-.18,0-.95a3.82,3.82,0,0,0-.08-.69A3.65,3.65,0,0,0,24.69,9a2.49,2.49,0,0,1-.28-.8,7.62,7.62,0,0,0,1.9-.58l.09,0a1.7,1.7,0,0,1,.5.72c.05.15.11.3.16.44A12,12,0,0,1,21.78,22.9l-.13.08a11.93,11.93,0,0,1-6.51,1.58l-.42.2a15.68,15.68,0,0,0,5.07-.13,14.43,14.43,0,0,0,5-2.19,12.88,12.88,0,0,0,4-13.82,9.38,9.38,0,0,0-1.13-3.48,6.69,6.69,0,0,0,.31-1c.07-.44.21-.61.65-.41A6.33,6.33,0,0,0,30.27,4a3.36,3.36,0,0,1,1.85.46s.2-.27-.46-.48l1.25,0s-.8-.23-1.3-.33l1.75-.32S33.57,3,32.86,3.14Z"/><path class="cls-2" d="M16.08,2.42l-.33-.07A1,1,0,0,0,16.08,2.42Z"/><path class="cls-3" d="M27.42,6.86S24,2.39,21.75,2.75A17.1,17.1,0,0,0,17.7,4s-.34.4.93-.08,3.5-1.73,5.48,0S27.16,7.05,27.42,6.86Z"/><path class="cls-3" d="M26.85,3.94A2.07,2.07,0,0,1,27.5,5s-.4-.73-.69-.87Z"/><path class="cls-3" d="M26.25,7.4s-.21-.86-.8-1C25.45,6.42,26.18,6.94,26.25,7.4Z"/><path class="cls-3" d="M18.6,2.48l-.75.33A1.09,1.09,0,0,1,18.6,2.48Z"/></g></g></svg>