<svg xmlns="http://www.w3.org/2000/svg" viewBox="0 0 41.86 36.23"><defs><style>.cls-1{fill:#ca93f3;}</style></defs><title>icoCampoMorado</title><g id="Capa_2" data-name="Capa 2"><g id="ficha-mi"><path class="cls-1" d="M39.71,31.93H33.85V28.61h1.66a1.08,1.08,0,0,0,0-2.15H30a1.08,1.08,0,0,0,0,2.15h1.66v3.32H14.47V24.47h8.61a1.07,1.07,0,0,0,.79-1.8L18.4,16.78h2.53A1.08,1.08,0,0,0,21.72,15l-5-5.42h2.53a1.06,1.06,0,0,0,1-.65A1.07,1.07,0,0,0,20,7.74L13.11.33a1.11,1.11,0,0,0-1.58,0L4.65,7.74a1.06,1.06,0,0,0-.2,1.16,1.07,1.07,0,0,0,1,.65H8L2.92,15a1.08,1.08,0,0,0-.19,1.16,1.07,1.07,0,0,0,1,.65H6.24L.77,22.67a1.07,1.07,0,0,0,.79,1.8h8.61v7.46h-8a2.15,2.15,0,0,0,0,4.3H39.71a2.15,2.15,0,0,0,0-4.3Z"/></g></g></svg>