<svg xmlns="http://www.w3.org/2000/svg" viewBox="0 0 21.44 21.44"><defs><style>.cls-1{fill:#ffcb00;}</style></defs><title>icoChofer</title><g id="Capa_2" data-name="Capa 2"><g id="detalle"><g id="steering_wheel"><path class="cls-1" d="M10.72,0A10.72,10.72,0,1,0,21.44,10.72,10.72,10.72,0,0,0,10.72,0Zm0,2.68A8,8,0,0,1,18.27,8H3.17A8,8,0,0,1,10.72,2.68Zm0,9.38a1.34,1.34,0,1,1,1.34-1.34A1.34,1.34,0,0,1,10.72,12.06Zm-8-1.34c3.66,0,6.63,3.53,6.69,7.9A8,8,0,0,1,2.68,10.72Zm9.39,7.9c.06-4.37,3-7.9,6.69-7.9A8,8,0,0,1,12.07,18.62Z"/></g></g></g></svg>