<svg xmlns="http://www.w3.org/2000/svg" viewBox="0 0 19.67 19.67"><defs><style>.cls-1{fill:#61e1ff;}</style></defs><title>icoCaceriaAzul</title><g id="Capa_2" data-name="Capa 2"><g id="detalle"><path class="cls-1" d="M18.84.05,15.58,1.68a.58.58,0,0,0-.32.52V3.59L6.47,12.38l-2.11-.7a.56.56,0,0,0-.59.14L.51,15.08a.58.58,0,0,0,.22,1l2.18.72.72,2.18a.58.58,0,0,0,1,.22L7.85,15.9A.57.57,0,0,0,8,15.31l-.7-2.11,8.79-8.79h1.39A.55.55,0,0,0,18,4.09L19.62.82A.6.6,0,0,0,18.84.05Z"/><path class="cls-1" d="M16,16.71a1.59,1.59,0,0,0-.24-.2,9.86,9.86,0,0,0-1.1-9.06L12.21,9.91a12.45,12.45,0,0,1,2,6.42l-.12.05L9.89,12.22,9.08,13l4.15,4.16A1.73,1.73,0,1,0,16,16.71Z"/><path class="cls-1" d="M9.76,7.46,12.22,5A9.85,9.85,0,0,0,3.15,3.9,1.57,1.57,0,0,0,3,3.65a1.73,1.73,0,1,0-.48,2.79l4.16,4.15.81-.81L3.29,5.62a.61.61,0,0,0,0-.12A12.35,12.35,0,0,1,9.76,7.46Z"/></g></g></svg>