<svg xmlns="http://www.w3.org/2000/svg" viewBox="0 0 29.76 28.88"><defs><style>.cls-1{fill:#61e1ff;}</style></defs><title>icoDialecto</title><g id="Capa_2" data-name="Capa 2"><g id="ficha-mi"><path class="cls-1" d="M12.71,23.67c1.41,0,7.71-.37,8.63-6.87a6.37,6.37,0,0,0,.05-1.3l-.86.05a4.83,4.83,0,0,1-.05,1.13c-.91,6.5-7.72,6.14-8,6.12-.11,0-8.39-.05-12,0v.86c3.65,0,11.92,0,12,0Z"/><path class="cls-1" d="M12.44,26.41c3.57,0,10.19-1.69,12.33-8,1.37-4-.12-7.4-1.32-10.1-1.31-3-2.25-5.09.33-7.08L23.25.54c-3.11,2.4-1.89,5.17-.59,8.11,1.2,2.7,2.56,5.77,1.3,9.48-2,5.85-8.18,7.41-11.52,7.41-.08,0-8.36-.05-12,0v.86C4.08,26.35,12.35,26.4,12.44,26.41Z"/><path class="cls-1" d="M0,28.88H11.37c10.27,0,16.41-5.09,16.41-13.62a21.27,21.27,0,0,0-1.05-6.44A13.37,13.37,0,0,1,26,5c0-1.23.78-3.28,2.43-3.75L29.76.82,28.45.37c-.18-.06-4.51-1.48-7.37,1.68a10,10,0,0,0-2.84,7h.86a9.22,9.22,0,0,1,2.62-6.38A5.92,5.92,0,0,1,27,1a5.34,5.34,0,0,0-1.9,4,14.31,14.31,0,0,0,.76,4.11,20.38,20.38,0,0,1,1,6.2c0,8-5.81,12.76-15.54,12.76H.86v-10H10V17.2H0Z"/><path class="cls-1" d="M12.36,18.63a2.89,2.89,0,0,0,2.88-2.18,3.63,3.63,0,0,0-2-4.09l-.43.75a2.81,2.81,0,0,1,1.61,3.12,2,2,0,0,1-2.05,1.54c-1.23,0-4.1-.45-4.1-4.57A5.19,5.19,0,0,1,13,7.71,6.87,6.87,0,0,1,18,9c1.61,1.32,2.45,3.55,2.52,6.61l.87,0c-.08-3.33-1-5.77-2.85-7.26a7.6,7.6,0,0,0-5.69-1.48h0A6.11,6.11,0,0,0,7.4,13.2C7.4,17.2,10,18.63,12.36,18.63Z"/><path class="cls-1" d="M.43,21.08h11c7.39,0,7.77-4.79,7.77-5.75,0-2.78-1.49-5.75-5.67-5.75a3.54,3.54,0,0,0-3.29,1.9,4.14,4.14,0,0,0,.36,4.22,4,4,0,0,0,4.15,1.47l-.14-.85A3.13,3.13,0,0,1,11,11.88a2.65,2.65,0,0,1,2.52-1.43c4.34,0,4.8,3.41,4.8,4.88,0,1.15-.49,4.88-6.9,4.88H.43Z"/></g></g></svg>