<svg xmlns="http://www.w3.org/2000/svg" viewBox="0 0 23.88 23.92"><defs><style>.cls-1{fill:#61e1ff;}</style></defs><title>icoestudiosAzul</title><g id="Capa_2" data-name="Capa 2"><g id="ficha-mi"><circle class="cls-1" cx="11.92" cy="15.61" r="3.51"/><path class="cls-1" d="M23.26,0H.62A.62.62,0,0,0,0,.62V16.71a.62.62,0,0,0,.62.62h6.7a4.79,4.79,0,0,1-.3-1.7,4.91,4.91,0,0,1,.15-1.22H3.44a.65.65,0,0,1-.65-.65V3.38a.65.65,0,0,1,.65-.64h17a.65.65,0,0,1,.65.64V13.76a.65.65,0,0,1-.65.65H16.7a4.92,4.92,0,0,1,.16,1.22,5,5,0,0,1-.3,1.7h6.7a.62.62,0,0,0,.62-.62V.62A.62.62,0,0,0,23.26,0Z"/><path class="cls-1" d="M19.65,4.11H4.16V13h3.6a4.93,4.93,0,0,1,8.36,0h3.53ZM8.87,6.33a.68.68,0,0,1,.68-.68h4.76a.67.67,0,0,1,.68.68h0a.68.68,0,0,1-.68.69H9.55a.69.69,0,0,1-.68-.69Zm6.9,3.42H8.13a.68.68,0,0,1-.68-.69.67.67,0,0,1,.68-.68h7.64a.67.67,0,0,1,.68.68A.68.68,0,0,1,15.77,9.75Z"/><path class="cls-1" d="M9.32,19.8v3.38a.73.73,0,0,0,1.1.64l1.12-.62a.82.82,0,0,1,.79,0l1.12.6a.74.74,0,0,0,1.09-.64V19.81a4.94,4.94,0,0,1-5.22,0Z"/></g></g></svg>