<svg xmlns="http://www.w3.org/2000/svg" viewBox="0 0 13.58 11.26"><defs><style>.cls-1{fill:#d6a8f6;}</style></defs><title>icoEmail</title><g id="Capa_2" data-name="Capa 2"><g id="ficha-mi"><path class="cls-1" d="M1.3,3.29,2.86,4.37l2,1.38L5.16,6l.41.29c.11.07.24.16.4.25a2,2,0,0,0,.43.2,1.14,1.14,0,0,0,.38.07h0a1.14,1.14,0,0,0,.38-.07,2,2,0,0,0,.43-.2L8,6.27,8.42,6l.32-.23,3.55-2.46a3.87,3.87,0,0,0,.92-.93,2,2,0,0,0,.37-1.15,1.14,1.14,0,0,0-.36-.85A1.16,1.16,0,0,0,12.37,0H1.21a1.09,1.09,0,0,0-.9.39,1.56,1.56,0,0,0-.31,1,1.74,1.74,0,0,0,.42,1A3.49,3.49,0,0,0,1.3,3.29Z"/><path class="cls-1" d="M12.82,4.69Q10.35,6.37,9.05,7.3l-.7.5a4,4,0,0,1-.72.36,2.25,2.25,0,0,1-.83.19h0A2.29,2.29,0,0,1,6,8.16a4,4,0,0,1-.72-.36l-.7-.5C3.85,6.8,2.59,5.93.77,4.69A4.53,4.53,0,0,1,0,4v6a1.16,1.16,0,0,0,.36.86,1.14,1.14,0,0,0,.85.36H12.37a1.18,1.18,0,0,0,.86-.36,1.19,1.19,0,0,0,.35-.86V4A4.45,4.45,0,0,1,12.82,4.69Z"/></g></g></svg>