<svg xmlns="http://www.w3.org/2000/svg" viewBox="0 0 33.67 33.67"><defs><style>.cls-1{fill:#ca93f3;}</style></defs><title>icoEstudiosMorado</title><g id="Capa_2" data-name="Capa 2"><g id="ficha-mi"><path class="cls-1" d="M9.44,18h8.25a7.05,7.05,0,0,1,1.6-2.25H9.4a1,1,0,1,1,0-2H24.23A7.11,7.11,0,0,1,29.43,16V6.73a3.58,3.58,0,0,1-2.5-2.5H6.73a3.58,3.58,0,0,1-2.5,2.5v16a3.58,3.58,0,0,1,2.5,2.5H18.49a7.14,7.14,0,0,1-1.43-4.3,7.93,7.93,0,0,1,.06-1H9.44a1,1,0,1,1,0-2Zm3.15-9.51h8.47a1,1,0,0,1,0,2H12.59a1,1,0,1,1,0-2Z"/><path class="cls-1" d="M33.38.29a1,1,0,0,0-.7-.29H1A1,1,0,0,0,0,1V28.41a1,1,0,0,0,1,1l18.11,0V27.19H5.88a1,1,0,0,1-1-1,1.64,1.64,0,0,0-1.65-1.65,1,1,0,0,1-1-1V5.88a1,1,0,0,1,1-1A1.64,1.64,0,0,0,4.89,3.24a1,1,0,0,1,1-1h21.9a1,1,0,0,1,1,1,1.64,1.64,0,0,0,1.65,1.65,1,1,0,0,1,1,1V23.56a1,1,0,0,1-1,1h0a7.71,7.71,0,0,1-1.05,1.36v3.53h3.29a1,1,0,0,0,1-1L33.67,1A1,1,0,0,0,33.38.29Z"/><path class="cls-1" d="M21.06,27.35v6.32h0l3.18-2.11,3.16,2.11V27.35a7.16,7.16,0,0,1-6.34,0Z"/><path class="cls-1" d="M24.23,15.71a5.2,5.2,0,1,0,5.2,5.2A5.2,5.2,0,0,0,24.23,15.71Z"/></g></g></svg>