<svg xmlns="http://www.w3.org/2000/svg" viewBox="0 0 30.42 30.42"><defs><style>.cls-1{fill:#d9eef4;}.cls-2{fill:#008db7;stroke:#008db7;stroke-miterlimit:10;}</style></defs><title>icoFlechaAzul</title><g id="Capa_2" data-name="Capa 2"><g id="ficha-mi"><circle class="cls-1" cx="15.21" cy="15.21" r="15.21"/><path class="cls-2" d="M15.6,10.38a.41.41,0,0,0-.59,0l-3.76,3.77a.42.42,0,0,0,0,.6.43.43,0,0,0,.6,0l3-3.05v10a.42.42,0,0,0,.43.42.42.42,0,0,0,.42-.42v-10l3,3.05a.43.43,0,0,0,.6,0,.42.42,0,0,0,0-.6Z"/></g></g></svg>