<svg xmlns="http://www.w3.org/2000/svg" viewBox="0 0 66.38 44.03"><defs><style>.cls-1{fill:#ca93f3;}.cls-2{fill:#aa7cd4;}</style></defs><title>icoFamilia</title><g id="Capa_2" data-name="Capa 2"><g id="detalle"><circle class="cls-1" cx="9.95" cy="4.08" r="4.08" transform="translate(-0.53 1.65) rotate(-9.22)"/><path class="cls-1" d="M19.85,22s-1.91-7-2.8-9.2a4.11,4.11,0,0,0-3.84-3H6.34a3.45,3.45,0,0,0-3.26,2.15c-.82,2.49-3,10-3,10A1.33,1.33,0,0,0,1,23.62a1.33,1.33,0,0,0,1.67-.89l2.7-8.88V42.24a1.8,1.8,0,0,0,3.59,0v-15h1.77v15a1.8,1.8,0,0,0,3.59,0V31.18l.32-17.34,2.7,8.89A1.34,1.34,0,1,0,19.85,22Z"/><circle class="cls-2" cx="39.67" cy="21.16" r="3.1" transform="translate(4.94 49.71) rotate(-67.5)"/><path class="cls-2" d="M47.88,22.42a1.11,1.11,0,0,0-1.56-.14l-3.89,3.26H36.6a1.81,1.81,0,0,0-1.32.75L32.11,31.2A1.11,1.11,0,0,0,34,32.4l1.89-3.06L34,37.27h2.28v5a1.34,1.34,0,0,0,2.68,0v-5h1.22v5a1.34,1.34,0,0,0,2.68,0v-5h2.2L43,28.12,47.74,24A1.11,1.11,0,0,0,47.88,22.42Z"/><circle class="cls-2" cx="26.42" cy="21.16" r="3.1" transform="translate(-3.24 37.47) rotate(-67.5)"/><path class="cls-2" d="M34,31.2l-3.17-4.91a1.81,1.81,0,0,0-1.32-.75H23.65l-3.83-3.22a1.16,1.16,0,0,0-1.57.06,1.09,1.09,0,0,0,.1,1.6l4.72,4.14.13,9.15v5a1.34,1.34,0,0,0,1.41,1.33,1.38,1.38,0,0,0,1.27-1.41V36.42a.61.61,0,0,1,.61-.61.61.61,0,0,1,.61.61v5.79a1.38,1.38,0,0,0,1.27,1.41,1.33,1.33,0,0,0,1.41-1.33l0-13.4,2.31,3.51A1.11,1.11,0,1,0,34,31.2Z"/><circle class="cls-1" cx="55.88" cy="4.08" r="4.08" transform="translate(0.07 9) rotate(-9.22)"/><path class="cls-1" d="M66.33,22s-1.91-7-2.8-9.2a4.12,4.12,0,0,0-3.84-3H52.81a3.42,3.42,0,0,0-3.25,2.15c-.82,2.49-3,10-3,10a1.34,1.34,0,0,0,2.57.78l2.7-8.88v4.54L47.69,31.18H51.8V42.24a1.8,1.8,0,0,0,3.59,0V31.18h1.77V42.24a1.8,1.8,0,0,0,3.59,0V31.18h3.87L60.9,19.09l.16-5.25,2.7,8.89A1.34,1.34,0,0,0,66.33,22Z"/></g></g></svg>