<svg xmlns="http://www.w3.org/2000/svg" viewBox="0 0 41.72 35.33"><defs><style>.cls-1{fill:#ca93f3;}</style></defs><title>icoHijos</title><g id="Capa_2" data-name="Capa 2"><g id="ficha-mi"><circle class="cls-1" cx="30.02" cy="4.28" r="4.28" transform="translate(14.58 30.38) rotate(-67.5)"/><path class="cls-1" d="M41.37,6a1.54,1.54,0,0,0-2.16-.19l-5.37,4.5H25.78a2.54,2.54,0,0,0-1.82,1l-4.39,6.78a1.53,1.53,0,1,0,2.57,1.66l2.61-4.22-2.52,11h3.14v6.93a1.86,1.86,0,0,0,3.71,0V26.55h1.68v6.93a1.85,1.85,0,0,0,3.7,0V26.55h3L34.65,13.9l6.53-5.72A1.55,1.55,0,0,0,41.37,6Z"/><circle class="cls-1" cx="11.7" cy="4.28" r="4.28" transform="translate(3.27 13.46) rotate(-67.5)"/><path class="cls-1" d="M22.15,18.15l-4.38-6.78a2.58,2.58,0,0,0-1.82-1H7.88L2.58,5.89A1.58,1.58,0,0,0,.41,6,1.53,1.53,0,0,0,.55,8.18L7.07,13.9l.19,12.65v6.93a1.85,1.85,0,0,0,2,1.85A1.92,1.92,0,0,0,11,33.38v-8a.85.85,0,0,1,1.69,0v8a1.92,1.92,0,0,0,1.75,1.95,1.85,1.85,0,0,0,2-1.85l0-18.51,3.2,4.84a1.53,1.53,0,1,0,2.56-1.66Z"/></g></g></svg>