<svg xmlns="http://www.w3.org/2000/svg" viewBox="0 0 20.13 31.76"><defs><style>.cls-1{fill:#ffda00;}</style></defs><title>icoHijo</title><g id="Capa_2" data-name="Capa 2"><g id="ficha-fam"><circle class="cls-1" cx="9.61" cy="3.85" r="3.85" transform="translate(-0.74 3.97) rotate(-22.5)"/><path class="cls-1" d="M.22,16.32l3.94-6.1A2.25,2.25,0,0,1,5.8,9.29h7.25l4.77-4a1.41,1.41,0,0,1,1.94.07,1.37,1.37,0,0,1-.12,2L13.77,12.5l-.16,11.36v6.23a1.68,1.68,0,0,1-1.76,1.67A1.73,1.73,0,0,1,10.28,30V22.81a.76.76,0,0,0-.76-.76.75.75,0,0,0-.75.76V30a1.74,1.74,0,0,1-1.58,1.76,1.67,1.67,0,0,1-1.75-1.67l0-16.64L2.53,17.81A1.37,1.37,0,1,1,.22,16.32Z"/></g></g></svg>