<?xml version="1.0" encoding="utf-8"?>
<!-- Generator: Adobe Illustrator 22.0.1, SVG Export Plug-In . SVG Version: 6.00 Build 0)  -->
<svg version="1.1" id="Capa_1" xmlns="http://www.w3.org/2000/svg" xmlns:xlink="http://www.w3.org/1999/xlink" x="0px" y="0px"
	 viewBox="0 0 88 88" style="enable-background:new 0 0 88 88;" xml:space="preserve">
<style type="text/css">
	.st0{fill:#FFDA00;}
</style>
<g id="Capa_2_1_">
	<g id="ficha-fam">
		<circle class="st0" cx="44.5" cy="23.1" r="6.6"/>
		<path class="st0" d="M28.3,44.6l6.8-10.5c0.7-0.9,1.7-1.5,2.8-1.6h12.5l8.2-6.9c1-0.9,2.4-0.8,3.3,0.1c0.9,0.9,0.9,2.4-0.1,3.3
			c0,0-0.1,0.1-0.1,0.1l-10.1,8.9l-0.3,19.6v10.7c0,1.6-1.3,2.9-2.9,2.9c0,0-0.1,0-0.1,0c-1.6-0.1-2.7-1.5-2.7-3V55.8
			c0-0.7-0.6-1.3-1.3-1.3l0,0c-0.7,0-1.3,0.6-1.3,1.3c0,0,0,0,0,0v12.4c0,1.6-1.2,2.9-2.7,3c-1.6,0.1-2.9-1.1-3-2.7c0,0,0-0.1,0-0.1
			V39.7l-5,7.5c-0.7,1.1-2.2,1.4-3.3,0.7C27.9,47.2,27.6,45.7,28.3,44.6z"/>
	</g>
</g>
</svg>
