<svg xmlns="http://www.w3.org/2000/svg" viewBox="0 0 15.29 38.43"><defs><style>.cls-1{fill:#3fb6e5;}</style></defs><title>icoHombre</title><g id="Capa_2" data-name="Capa 2"><g id="detalle"><circle class="cls-1" cx="7.65" cy="3.09" r="3.09"/><path class="cls-1" d="M15.14,9.85A3.58,3.58,0,0,0,11.69,7.2H3.57A3.56,3.56,0,0,0,.12,9.85a1.62,1.62,0,0,0-.12.57V22.08a1.48,1.48,0,0,0,1.34,1.49,1.44,1.44,0,0,0,1.53-1.43V11.49a.36.36,0,1,1,.71,0V36.7a1.74,1.74,0,0,0,3.48,0V21.62H8V36.7a1.74,1.74,0,0,0,3.48,0V11.59a.46.46,0,0,1,.92,0v10.5a1.48,1.48,0,0,0,1.33,1.49,1.45,1.45,0,0,0,1.54-1.43V10.43A2.25,2.25,0,0,0,15.14,9.85Z"/></g></g></svg>