<svg xmlns="http://www.w3.org/2000/svg" viewBox="0 0 20.13 31.76"><defs><style>.cls-1{fill:#ffda00;}</style></defs><title>icohija</title><g id="Capa_2" data-name="Capa 2"><g id="ficha-fam"><circle class="cls-1" cx="9.61" cy="3.85" r="3.85" transform="translate(2.38 11.26) rotate(-67.5)"/><path class="cls-1" d="M19.81,5.41a1.37,1.37,0,0,0-1.93-.17l-4.83,4H5.8a2.25,2.25,0,0,0-1.64.93L.22,16.32a1.37,1.37,0,0,0,2.31,1.49L4.88,14,2.61,23.86H5.44v6.23a1.67,1.67,0,1,0,3.33,0V23.86h1.51v6.23a1.67,1.67,0,1,0,3.33,0V23.86h2.73L13.77,12.5l5.87-5.15A1.38,1.38,0,0,0,19.81,5.41Z"/></g></g></svg>