<?xml version="1.0" encoding="utf-8"?>
<!-- Generator: Adobe Illustrator 22.0.1, SVG Export Plug-In . SVG Version: 6.00 Build 0)  -->
<svg version="1.1" id="Capa_1" xmlns="http://www.w3.org/2000/svg" xmlns:xlink="http://www.w3.org/1999/xlink" x="0px" y="0px"
	 viewBox="0 0 88 88" style="enable-background:new 0 0 88 88;" xml:space="preserve">
<style type="text/css">
	.st0{fill:#FFDA00;}
</style>
<g id="Capa_2_3_">
	<g id="ficha-fam_2_">
		<circle class="st0" cx="44.5" cy="23.2" r="6.6"/>
		<path class="st0" d="M62.1,25.8c-0.8-1-2.3-1.1-3.3-0.3c0,0,0,0,0,0l-8.3,6.9H37.9c-1.1,0.1-2.2,0.7-2.8,1.6l-6.8,10.6
			c-0.7,1.1-0.4,2.6,0.7,3.3c1.1,0.7,2.6,0.4,3.3-0.7l4.1-6.6l-3.9,17h4.9v10.7c-0.1,1.6,1.1,3,2.6,3.1s3-1.1,3.1-2.6
			c0-0.1,0-0.3,0-0.4V57.7h2.6v10.7c-0.1,1.6,1.1,3,2.6,3.1c1.6,0.1,3-1.1,3.1-2.6c0-0.1,0-0.3,0-0.4V57.7h4.7l-4.4-19.6l10.1-8.9
			C62.8,28.3,62.9,26.8,62.1,25.8z"/>
	</g>
</g>
</svg>
