<svg xmlns="http://www.w3.org/2000/svg" viewBox="0 0 26.49 26.49"><defs><style>.cls-1{fill:#61e1ff;}</style></defs><title>icoIdioma</title><g id="Capa_2" data-name="Capa 2"><g id="ficha-mi"><path class="cls-1" d="M25.75,17.6a13.18,13.18,0,0,0,0-8.71s0-.08,0-.12a13.24,13.24,0,0,0-24.93,0,.56.56,0,0,0,0,.12,13.18,13.18,0,0,0,0,8.71.56.56,0,0,0,0,.12,13.24,13.24,0,0,0,24.93,0S25.74,17.64,25.75,17.6Zm-12.51,7c-.5,0-1.31-.91-2-2.95a21.73,21.73,0,0,1-.79-3.35H16a20.67,20.67,0,0,1-.78,3.35C14.56,23.68,13.75,24.59,13.24,24.59Zm-3-8.2c-.09-1-.14-2.07-.14-3.15s.05-2.13.14-3.15h6c.09,1,.14,2.07.14,3.15s-.05,2.14-.14,3.15ZM1.9,13.24a11.36,11.36,0,0,1,.44-3.15h6c-.09,1-.13,2.1-.13,3.15s0,2.12.13,3.15h-6A11.26,11.26,0,0,1,1.9,13.24ZM13.24,1.9c.51,0,1.32.91,2,2.95A20.42,20.42,0,0,1,16,8.2H10.46a21.46,21.46,0,0,1,.79-3.35C11.93,2.81,12.74,1.9,13.24,1.9Zm4.92,8.19h6a11.25,11.25,0,0,1,0,6.3h-6c.09-1,.13-2.09.13-3.15S18.25,11.13,18.16,10.09ZM23.4,8.2H17.94a18.4,18.4,0,0,0-1.73-5.91A11.41,11.41,0,0,1,23.4,8.2ZM10.28,2.29A18.16,18.16,0,0,0,8.55,8.2H3.09A11.41,11.41,0,0,1,10.28,2.29Zm-7.19,16H8.55a18.16,18.16,0,0,0,1.73,5.91A11.41,11.41,0,0,1,3.09,18.29ZM16.21,24.2a18.4,18.4,0,0,0,1.73-5.91H23.4A11.41,11.41,0,0,1,16.21,24.2Z"/></g></g></svg>