<svg xmlns="http://www.w3.org/2000/svg" viewBox="0 0 25.59 25.53"><defs><style>.cls-1{fill:#ffcb00;}</style></defs><title>icoJardineria</title><g id="Capa_2" data-name="Capa 2"><g id="detalle"><path class="cls-1" d="M12.63,9.37A.3.3,0,0,0,13,9c-.55-1.68-2.53-2.31-4.37-.82a7.46,7.46,0,0,1-1.34,1c.64.64,1.37,2.79,3,3,1.75.32,3.31-1.4,2-2.19a5.45,5.45,0,0,0-2.88-.83A5.42,5.42,0,0,1,12.63,9.37Z"/><path class="cls-1" d="M20.57,8.16c-3.18-2.58-5.21,1.5-3.95,1.09a5.52,5.52,0,0,1,2.86-.13,5.48,5.48,0,0,0-4.22,2,33.5,33.5,0,0,1,.36-4.08,3.39,3.39,0,0,0,2.6-1.92c1.08-1.92.58-3.89.42-5.13-.84.82-4.5-.14-6,2.35a3.19,3.19,0,0,0,.22,3.41.41.41,0,0,0,.74-.21A3.85,3.85,0,0,1,16,2a7.37,7.37,0,0,0-1.36,2.89,29.44,29.44,0,0,0-.87,7.7.9.9,0,0,0,1.75.35,4.18,4.18,0,0,1,1.15-1.56,2.41,2.41,0,0,0,2.24.77c1.59-.23,2.33-2.38,3-3A7.19,7.19,0,0,1,20.57,8.16Z"/><path class="cls-1" d="M25.25,14.48a2.4,2.4,0,0,0-2.57.09l-6.24,4.57H12.79l-.92-.91h3.36a2,2,0,0,0,2.14-1.83,2,2,0,0,0-2.14-1.83H14a6.16,6.16,0,0,1-2.8-.33,5.45,5.45,0,0,0-2.47-.58,5.25,5.25,0,0,0-3.78,1.55L0,20.05l5.48,5.48,1.83-2.74h8.63a3.73,3.73,0,0,0,2.49-.95l6.88-6.11A.8.8,0,0,0,25.25,14.48Z"/></g></g></svg>