<svg xmlns="http://www.w3.org/2000/svg" viewBox="0 0 17.32 38.3"><defs><style>.cls-1{fill:#aa7cd4;}</style></defs><title>icoMama</title><g id="Capa_2" data-name="Capa 2"><g id="ficha-fam"><circle class="cls-1" cx="8.18" cy="3.55" r="3.55" transform="translate(-0.46 1.36) rotate(-9.22)"/><path class="cls-1" d="M17.27,19.1s-1.66-6.07-2.44-8a3.57,3.57,0,0,0-3.34-2.57h-6a3,3,0,0,0-2.83,1.87C2,12.55.05,19.1.05,19.1a1.16,1.16,0,0,0,2.23.67l2.35-7.72V16L1.05,27.13H4.63v9.61a1.56,1.56,0,0,0,3.12,0V27.13H9.29v9.61a1.57,1.57,0,0,0,3.13,0V27.13h3.36L12.55,16.61,12.69,12,15,19.77a1.16,1.16,0,0,0,2.23-.67Z"/></g></g></svg>