<svg xmlns="http://www.w3.org/2000/svg" viewBox="0 0 22.64 22.64"><defs><style>.cls-1{fill:#ffcb00;fill-rule:evenodd;}</style></defs><title>icoMecanica</title><g id="Capa_2" data-name="Capa 2"><g id="detalle"><g id="Settings"><path class="cls-1" d="M22.57,10.06a.74.74,0,0,0-.73-.56A2.49,2.49,0,0,1,19.5,8a2.52,2.52,0,0,1,.63-2.8.63.63,0,0,0,.07-.85,11.41,11.41,0,0,0-1.8-1.81.63.63,0,0,0-.86.07,2.6,2.6,0,0,1-2.82.63A2.51,2.51,0,0,1,13.19.74a.61.61,0,0,0-.55-.66,10.88,10.88,0,0,0-2.55,0,.63.63,0,0,0-.56.65A2.51,2.51,0,0,1,8,3.13a2.61,2.61,0,0,1-2.8-.64.65.65,0,0,0-.86-.07A11.19,11.19,0,0,0,2.49,4.23a.62.62,0,0,0,.07.86,2.51,2.51,0,0,1,.63,2.83A2.61,2.61,0,0,1,.73,9.45.6.6,0,0,0,.08,10a11.71,11.71,0,0,0,0,2.58.75.75,0,0,0,.74.55,2.49,2.49,0,0,1,2.33,1.55,2.52,2.52,0,0,1-.63,2.8.65.65,0,0,0-.07.86,11.35,11.35,0,0,0,1.79,1.81.62.62,0,0,0,.86-.07,2.61,2.61,0,0,1,2.82-.64A2.52,2.52,0,0,1,9.45,21.9a.63.63,0,0,0,.55.66,11.38,11.38,0,0,0,1.31.08,10.43,10.43,0,0,0,1.24-.07.63.63,0,0,0,.56-.65,2.49,2.49,0,0,1,1.55-2.41,2.62,2.62,0,0,1,2.8.63.62.62,0,0,0,.85.08,11.25,11.25,0,0,0,1.84-1.81.64.64,0,0,0-.07-.86,2.5,2.5,0,0,1,1.68-4.36h.14a.63.63,0,0,0,.66-.55A11.71,11.71,0,0,0,22.57,10.06ZM11.34,15.12a3.78,3.78,0,1,1,3.77-3.78A3.78,3.78,0,0,1,11.34,15.12Z"/></g></g></g></svg>