<svg xmlns="http://www.w3.org/2000/svg" viewBox="0 0 18.86 18.95"><defs><style>.cls-1{fill:#ffcb00;}</style></defs><title>icoMaquinaria</title><g id="Capa_2" data-name="Capa 2"><g id="detalle"><path class="cls-1" d="M5.12,8.72a5.12,5.12,0,1,0,5.11,5.12A5.12,5.12,0,0,0,5.12,8.72Zm0,6.5a1.45,1.45,0,1,1,1.45-1.44A1.45,1.45,0,0,1,5.1,15.22Z"/><path class="cls-1" d="M16,14.36a2.3,2.3,0,1,0,2.3,2.3A2.3,2.3,0,0,0,16,14.36Zm0,3a.81.81,0,1,1,.81-.8A.8.8,0,0,1,16,17.39Z"/><path class="cls-1" d="M16.31,7.61l0-5.58L17.15.77,16.26.11,15.15,1.64V7.27l-3.8-.92L8.69,0H1.63L.14,9.82a6.36,6.36,0,0,1,11.29,4V14H13.6A3.37,3.37,0,0,1,16,13a3.4,3.4,0,0,1,2.41,1h.44v-6ZM8.77,6.32H3.21a.6.6,0,0,1-.6-.6V1.88a.6.6,0,0,1,.6-.6H7.46a.6.6,0,0,1,.57.4L9.34,5.52A.6.6,0,0,1,8.77,6.32Z"/></g></g></svg>