<svg xmlns="http://www.w3.org/2000/svg" viewBox="0 0 19.44 39.8"><defs><style>.cls-1{fill:#ea4477;}</style></defs><title>icoMujer</title><g id="Capa_2" data-name="Capa 2"><g id="detalle"><circle class="cls-1" cx="9.82" cy="3.19" r="3.19"/><path class="cls-1" d="M19.36,20.56l-4-11.28h0A2.21,2.21,0,0,0,13.28,7.8H6.18A2.23,2.23,0,0,0,4.09,9.28h0l-4,11.27a1.5,1.5,0,0,0,2.82,1l2.75-7.82L3.46,25.09a1.11,1.11,0,0,0,1.1,1.31H5.74V38a1.8,1.8,0,0,0,3.6,0V26.4h1V38a1.8,1.8,0,0,0,3.6,0V26.4h.87a1.1,1.1,0,0,0,1.09-1.31L13.77,13.6l2.8,8a1.48,1.48,0,0,0,1.91.91h0A1.5,1.5,0,0,0,19.36,20.56Z"/></g></g></svg>