<?xml version="1.0" encoding="utf-8"?>
<!-- Generator: Adobe Illustrator 22.0.1, SVG Export Plug-In . SVG Version: 6.00 Build 0)  -->
<svg version="1.1" id="Capa_1" xmlns="http://www.w3.org/2000/svg" xmlns:xlink="http://www.w3.org/1999/xlink" x="0px" y="0px"
	 viewBox="0 0 88 88" style="enable-background:new 0 0 88 88;" xml:space="preserve">
<style type="text/css">
	.st0{fill:#AA7CD4;}
</style>
<g id="Capa_2_2_">
	<g id="ficha-fam_1_">
		<circle class="st0" cx="43.3" cy="21.6" r="5.1"/>
		<path class="st0" d="M56.4,43.9c0,0-2.4-8.7-3.5-11.5c-0.6-2.1-2.6-3.6-4.8-3.7h-8.6c-1.8,0-3.4,1-4.1,2.7
			c-0.9,3.1-3.7,12.5-3.7,12.5c-0.3,0.9,0.2,1.8,1.1,2.1c0.9,0.3,1.8-0.2,2.1-1.1l0,0l3.4-11.1v5.7l-5.1,16h5.1v13.8
			c0,1.2,1,2.2,2.2,2.2c1.2,0,2.2-1,2.2-2.2V55.5h2.2v13.8c0.1,1.2,1.2,2.2,2.4,2.1c1.1-0.1,2-1,2.1-2.1V55.5h4.8l-4.6-15.1l0.2-6.6
			l3.3,11.2c0.3,0.9,1.2,1.4,2.1,1.1C56.1,45.7,56.6,44.8,56.4,43.9L56.4,43.9z"/>
	</g>
</g>
</svg>
