<svg xmlns="http://www.w3.org/2000/svg" viewBox="0 0 36.5 30.31"><defs><style>.cls-1{fill:#fc8691;}</style></defs><title>icoMoto</title><g id="Capa_2" data-name="Capa 2"><g id="ficha-mi"><path class="cls-1" d="M0,18.25v6l32,6a18.22,18.22,0,0,0,4.36-9.46,6.38,6.38,0,0,1-1.25.13H21.23a5.85,5.85,0,0,1-5.85-5.85h0a5.85,5.85,0,0,1,5.85-5.85H34.15A18.25,18.25,0,0,0,0,18.25ZM7.84,11a2.21,2.21,0,1,1,2.21,2.21A2.21,2.21,0,0,1,7.84,11Z"/><path class="cls-1" d="M18.47,15.21a3,3,0,0,1,3-3H35.49a17.92,17.92,0,0,1,1,5.93H21.43A3,3,0,0,1,18.47,15.21Z"/></g></g></svg>