<svg xmlns="http://www.w3.org/2000/svg" viewBox="0 0 29.38 35.57"><defs><style>.cls-1{fill:#ffda15;}</style></defs><title>icoObjetivos</title><g id="Capa_2" data-name="Capa 2"><g id="detalle"><path class="cls-1" d="M23.54.94V0H5.83V.94H0v9.5a9.44,9.44,0,0,0,9.43,9.43h.14A8.64,8.64,0,0,0,11.79,21l-1.54,8H6.89v6.54H22.48V29H19.13l-1.54-8a8.58,8.58,0,0,0,2.21-1.14h.14a9.45,9.45,0,0,0,9.44-9.43V.94ZM3.13,10.44V4.07h2.7v8.58A8.94,8.94,0,0,0,6.49,16,6.32,6.32,0,0,1,3.13,10.44Zm23.11,0A6.3,6.3,0,0,1,22.88,16a8.75,8.75,0,0,0,.66-3.36V4.07h2.7Z"/></g></g></svg>