<svg xmlns="http://www.w3.org/2000/svg" viewBox="0 0 29.02 31.6"><defs><style>.cls-1{fill:#24ebbb;}</style></defs><title>icoPericos</title><g id="Capa_2" data-name="Capa 2"><g id="ficha-fam"><path class="cls-1" d="M.93,25.44a8.09,8.09,0,0,0,1.56.15A8.19,8.19,0,0,0,5.65,25V28a2.06,2.06,0,0,0,2.06,2.06,8.4,8.4,0,0,0,6.19-2.73v2H12.5a1.14,1.14,0,0,0,0,2.28h5.05a1.14,1.14,0,1,0,0-2.28H16.18V26.25H17a5.51,5.51,0,0,0,5.5-5.5V13.49H27A2.05,2.05,0,0,0,29,11.44a7,7,0,0,0-6.95-6.95h-.71a.75.75,0,0,0-.21,0,.86.86,0,0,0-.23,0h-7l-.57,0a1.41,1.41,0,0,0-.24-.13,4.68,4.68,0,0,1-.41-3A1.14,1.14,0,1,0,10.44.91a7,7,0,0,0,0,2.8,4.75,4.75,0,0,1-1.33-1L8.54,2a1.14,1.14,0,1,0-1.7,1.52l.58.65A6.94,6.94,0,0,0,9.86,6,6.27,6.27,0,0,0,7.58,10.8v4.34a8.34,8.34,0,0,0-1.93,5.34v.95a6,6,0,0,1-2-2.31,1.14,1.14,0,0,0-2.06,1,8.16,8.16,0,0,0,2.45,3,6.05,6.05,0,0,1-2.71.11,1.14,1.14,0,1,0-.43,2.24ZM15.82,9.2a1.64,1.64,0,1,1,1.64,1.65A1.64,1.64,0,0,1,15.82,9.2Z"/></g></g></svg>