<svg xmlns="http://www.w3.org/2000/svg" viewBox="0 0 33.77 90.62"><defs><style>.cls-1{fill:#ffda00;}</style></defs><title>icoPeso</title><g id="Capa_2" data-name="Capa 2"><g id="ficha-mi"><path class="cls-1" d="M33.76,48.87c.06-2.06-.21-6.32-.27-7.72a13.14,13.14,0,0,0-.64-4.7c-.71-1.94-.54-5.94-1-8.58s.05-9.29-8.42-11.77c0,0-3.35-.06-3.19-4.81,0,0,3,.7,1.14-2a1.47,1.47,0,0,0,.32-2.48,2,2,0,0,0-.49-3A3.81,3.81,0,0,0,18.5.6S16.65-.75,15.14.6c0,0-2.87.32-2.92,2.75,0,0-2.05,1.41-.38,3.08,0,0-1,.87-.81,1.62a1.35,1.35,0,0,0,.76,1s-.76.83-.47,1.51,1.94.44,1.94.44a14.73,14.73,0,0,1-.5,3.67c-.43.93-2.09,1.55-3.49,2S3.5,19.43,2.68,23A47.85,47.85,0,0,0,1.39,33a6.78,6.78,0,0,1-.62,3.42,47.11,47.11,0,0,0-.75,8c.14,2.3-.25,4.93.29,7.23S1.13,54.05,1.49,54s.79-.47.58-1.83a2.89,2.89,0,0,1,.25-2s.4-.32.29.9.07,1.19.29,1a2.69,2.69,0,0,0,.36-2.16A13.58,13.58,0,0,1,2.79,46,56.19,56.19,0,0,1,5,39.58c.43-.93,1.77-3.38,1.84-4.75,0,0-.18,5.19-.83,6.8A31.25,31.25,0,0,0,4.37,53.05c.15,5.54,1.34,11.33,1.37,13.06s-.11,7.49-.11,7.49a19,19,0,0,0,1.08,5.33c1,3,3.21,8.1,3.21,8.1a1.07,1.07,0,0,1,.1,1.11c-.17.39-.47,1.19-.68,1.78a.52.52,0,0,0,.49.7h4.66a.52.52,0,0,0,.46-.76l-1.25-2.4a4,4,0,0,1,0-1.62,27,27,0,0,0,1.48-8.5c-.18-3.49-.54-9.82-.54-9.82a26.71,26.71,0,0,0,.72-3.64c.07-1.13,1.07-5.88,1.18-7.9a.33.33,0,0,1,.32-.32h0a.33.33,0,0,1,.35.31,42.34,42.34,0,0,0,.63,5.82A32.53,32.53,0,0,1,19,68.45c0,1.44-.22,9.18-.22,10.15a40.51,40.51,0,0,0,1.15,6.84,2.62,2.62,0,0,1,.26,1.41,9.94,9.94,0,0,1-.78,1.67A4.39,4.39,0,0,0,18.53,90a.48.48,0,0,0,.47.64h5.1a.52.52,0,0,0,.49-.68,15.42,15.42,0,0,0-.67-1.8,1.62,1.62,0,0,1,0-1.26l3.5-9A20.13,20.13,0,0,0,28,72.79a108.06,108.06,0,0,1,.38-12.42c.38-2.64,1.83-10.9.61-14.63-1.15-3.51-2.58-8.33-2.37-10.76,0,0,2.16,5.44,3,7.37s1.47,4.25,1.09,5.71a10.41,10.41,0,0,0-.28,2.27c0,1.35,0,1.87.25,1.94s.29-.09.32-.79-.07-1.12.11-1.12.49.17.45.76,0,1.82,0,2.39a.56.56,0,0,0,1,.24A10.22,10.22,0,0,0,33.76,48.87Z"/></g></g></svg>