<svg xmlns="http://www.w3.org/2000/svg" viewBox="0 0 19.6 22.4"><defs><style>.cls-1{fill:#61e1ff;}</style></defs><title>icoPescaAzul</title><g id="Capa_2" data-name="Capa 2"><g id="detalle"><path class="cls-1" d="M8.4,7.13V.7A.7.7,0,0,0,7,.7V7.13a2.09,2.09,0,0,0,0,3.94V18.2a2.8,2.8,0,1,1-5.6,0V16.33l.92.87a.7.7,0,0,0,1-1l-2.1-2a.71.71,0,0,0-.76-.13A.69.69,0,0,0,0,14.7v3.5a4.2,4.2,0,0,0,8.4,0V11.07a2.09,2.09,0,0,0,0-3.94ZM7.7,9.8a.7.7,0,1,1,.7-.7A.7.7,0,0,1,7.7,9.8Z"/><path class="cls-1" d="M17,16.78A12.41,12.41,0,0,0,19.6,9.1c0-.45,0-.9-.07-1.35a11.76,11.76,0,0,1-4.13.77,11.7,11.7,0,0,1-4.12-.77A12.22,12.22,0,0,0,11.2,9.1a12.47,12.47,0,0,0,2.64,7.68l-2.55,4.58a.71.71,0,0,0,.09.81.69.69,0,0,0,.78.18l3.24-1.29,3.24,1.29a.6.6,0,0,0,.26,0,.72.72,0,0,0,.53-.23.71.71,0,0,0,.08-.81Z"/><path class="cls-1" d="M15.89.2a.69.69,0,0,0-1,0,12.45,12.45,0,0,0-3.4,6.15,10.41,10.41,0,0,0,7.78,0A12.41,12.41,0,0,0,15.89.2Zm.24,5.4a.71.71,0,0,1-.71-.7.7.7,0,0,1,.7-.7h0a.7.7,0,0,1,0,1.4Z"/></g></g></svg>