<svg xmlns="http://www.w3.org/2000/svg" viewBox="0 0 17.32 38.3"><defs><style>.cls-1{fill:#61e1ff;}</style></defs><title>icoPapa</title><g id="Capa_2" data-name="Capa 2"><g id="ficha-fam"><circle class="cls-1" cx="8.66" cy="3.55" r="3.55" transform="translate(-0.46 1.43) rotate(-9.22)"/><path class="cls-1" d="M17.27,19.1s-1.66-6.07-2.44-8a3.57,3.57,0,0,0-3.34-2.57h-6a3,3,0,0,0-2.83,1.87C2,12.55.05,19.1.05,19.1a1.16,1.16,0,0,0,2.23.67l2.35-7.72V36.74a1.56,1.56,0,0,0,3.12,0v-13H9.29v13a1.57,1.57,0,0,0,3.13,0V27.13L12.69,12,15,19.77a1.16,1.16,0,0,0,2.23-.67Z"/></g></g></svg>