<svg xmlns="http://www.w3.org/2000/svg" viewBox="0 0 46.52 39.29"><defs><style>.cls-1{fill:#24ebbb;}</style></defs><title>icoPerro</title><g id="Capa_2" data-name="Capa 2"><g id="ficha-mi"><path class="cls-1" d="M44.81,5.12H43.12a5.16,5.16,0,0,1-3.63-1.5L37.37,1.5A5.12,5.12,0,0,0,33.75,0H25.62a5,5,0,0,0-2.44.88h0c-.62.41-4.26,4.12-4.79,4.64C16,8,16.65,14.63,21.46,15.3a5.12,5.12,0,0,0,5.87-5.05V8.72a5.12,5.12,0,0,1,3.42-4.81V5.78A3.39,3.39,0,0,0,29,8.72v1.53a6.84,6.84,0,0,1-6.83,6.83c-.19,0-.38,0-.56,0-3.14,1.82-8.66,5.07-10.8,6.5-.19.12-.37.25-.55.38A8.39,8.39,0,0,0,7.57,34.18l0,0h-5a2.57,2.57,0,0,0,0,5.13H23.89a1.74,1.74,0,0,0,1.65-1.21c.56-1.71-2-3.76-4.3-3.89a6.73,6.73,0,0,0-1-8.25l1.22-1.2a8.56,8.56,0,0,1,2.46,6,7.33,7.33,0,0,1-.23,1.7h3.65v5.13A1.72,1.72,0,0,0,29,39.29h6.35a1.72,1.72,0,0,0,1.5-2.56,5.13,5.13,0,0,0-3.8-2.5l.38-3a8.58,8.58,0,0,0,4-5.78,8.49,8.49,0,0,0-3.29-8.29V13.67h5.13a6.7,6.7,0,0,0,5.17-2.93l1.82-3A1.71,1.71,0,0,0,44.81,5.12ZM35.87,6.41a1.29,1.29,0,1,1,1.28-1.29A1.28,1.28,0,0,1,35.87,6.41Z"/></g></g></svg>