<svg xmlns="http://www.w3.org/2000/svg" viewBox="0 0 21.74 21.74"><defs><style>.cls-1{fill:#ffcb00;}</style></defs><title>icoProduccionAnimal</title><g id="Capa_2" data-name="Capa 2"><g id="detalle"><path class="cls-1" d="M14.16,3.4l-.33,0h0a8.12,8.12,0,0,0-4.1,1.46A12.77,12.77,0,0,0,6.35,8.35,17.15,17.15,0,0,0,3.4,17.18a1.15,1.15,0,0,0,2.22.42l0-.11s0,0,0,0c1.24-3.27,4.54-5.36,9.06-5.72a3.85,3.85,0,0,0,2.46-1.31,4.24,4.24,0,0,0,1.13-2.83A4.18,4.18,0,0,0,14.16,3.4Zm0,6.82A2.65,2.65,0,1,1,16.8,7.58,2.65,2.65,0,0,1,14.16,10.22Z"/><path class="cls-1" d="M14.16,6.21a1.37,1.37,0,1,0,1.37,1.37A1.37,1.37,0,0,0,14.16,6.21Z"/><path class="cls-1" d="M14.16,0l-.58,0a11.48,11.48,0,0,0-5.8,2A16.22,16.22,0,0,0,3.53,6.45,20.43,20.43,0,0,0,0,17.18,4.55,4.55,0,0,0,8.84,18.7c.74-2,3-3.33,6.18-3.59a7.25,7.25,0,0,0,4.71-2.42A7.56,7.56,0,0,0,14.16,0Zm4,11.26A5.14,5.14,0,0,1,14.84,13c-4,.32-6.92,2.12-8,4.92v0l0,.05h0l0,.05h0a2.45,2.45,0,0,1-2.27,1.56,2.42,2.42,0,0,1-2.42-2.43A18.51,18.51,0,0,1,5.29,7.64,14.17,14.17,0,0,1,9,3.82a9.45,9.45,0,0,1,4.74-1.68h.45a5.43,5.43,0,0,1,4,9.13Z"/></g></g></svg>