<svg xmlns="http://www.w3.org/2000/svg" viewBox="0 0 34.71 37.76"><defs><style>.cls-1{fill:#fc8691;}</style></defs><title>icoPlaya</title><g id="Capa_2" data-name="Capa 2"><g id="ficha-mi"><path class="cls-1" d="M34.07,35.8l-.79-.42a10.3,10.3,0,0,0-3.88-1.45,4.21,4.21,0,0,0-2.22.42c-.4.19-.81.39-1.19.62a4.65,4.65,0,0,1-5,0,6.5,6.5,0,0,0-7.22,0,4.49,4.49,0,0,1-5,0,5.77,5.77,0,0,0-1.45-.72h0a4.67,4.67,0,0,0-2.1-.36C3.56,34,1,35.63.65,35.79A1,1,0,0,0,.07,37.1a1,1,0,0,0,1.31.59A7.65,7.65,0,0,0,2.65,37a4.62,4.62,0,0,1,5-.37,6.48,6.48,0,0,0,7.22,0,4.51,4.51,0,0,1,5,0,6.5,6.5,0,0,0,7.22,0,4.63,4.63,0,0,1,5,.41,7,7,0,0,0,1.15.61,1,1,0,0,0,1.33-.56A1,1,0,0,0,34.07,35.8Z"/><path class="cls-1" d="M3.57,16.69a4.75,4.75,0,0,1,6.6-1.17,1,1,0,0,0,1.49-.35,4.74,4.74,0,0,1,2-1.56l2,11.69h-.94A11.38,11.38,0,0,0,4.62,31.72a4.23,4.23,0,0,1,2.56.42c.18.08.37.15.55.25a5.29,5.29,0,0,1,.52.29,4.45,4.45,0,0,0,5,0,6.48,6.48,0,0,1,7.23,0,4.45,4.45,0,0,0,5,0A7,7,0,0,1,26.79,32h0a5.56,5.56,0,0,1,2.08-.4,11.17,11.17,0,0,0-10-6.29H17.76l-2.1-12a4.65,4.65,0,0,1,2.4.78,1,1,0,0,0,1.53-.18,4.73,4.73,0,0,1,6.59-1.16,1,1,0,0,0,1.59-1A13.21,13.21,0,0,0,13,.9a1.09,1.09,0,0,0-.64-.82,1.09,1.09,0,0,0-1.42.59,1.13,1.13,0,0,0,0,.68A13.19,13.19,0,0,0,1.74,16.28,1,1,0,0,0,3.57,16.69ZM25.22,10a6.81,6.81,0,0,0-5.82,1.13A21.4,21.4,0,0,0,16,2.87,11.23,11.23,0,0,1,25.22,10ZM13,11.68ZM9.74,4a21.56,21.56,0,0,0-.32,9,6.75,6.75,0,0,0-5.85.93A11.21,11.21,0,0,1,9.74,4Z"/></g></g></svg>