<svg xmlns="http://www.w3.org/2000/svg" viewBox="0 0 25.58 27.89"><defs><style>.cls-1{fill:#ffcb00;}</style></defs><title>icoRiego</title><g id="Capa_2" data-name="Capa 2"><g id="detalle"><path class="cls-1" d="M18.91,13.29l-7,1.68,4-5.21a.86.86,0,0,0-.09-1.15L11,4.14l-.9-2.25a3,3,0,0,0-5-.9l-1,1.13A7.47,7.47,0,0,0,2.37,8.83L2.66,10,.78,11.59A2.15,2.15,0,0,0,.6,14.74L6,20.36a2.15,2.15,0,0,0,2.6.39l10.17-5.69L21,17.27V11.35ZM4.57,8.48l0-.16A5.22,5.22,0,0,1,5.74,3.6l1-1.12a.78.78,0,0,1,.73-.25.77.77,0,0,1,.59.48l.87,2.17Z"/><circle class="cls-1" cx="24.41" cy="17.5" r="1.17"/><circle class="cls-1" cx="24.41" cy="22.19" r="1.17"/><circle class="cls-1" cx="24.41" cy="26.72" r="1.17"/></g></g></svg>