<svg xmlns="http://www.w3.org/2000/svg" viewBox="0 0 24.1 22.97"><defs><style>.cls-1{fill:#ffcb00;}</style></defs><title>icoRastro</title><g id="Capa_2" data-name="Capa 2"><g id="detalle"><path class="cls-1" d="M8,4.05a3.79,3.79,0,0,1,.13-2.88A.93.93,0,1,0,6.36.69a5.53,5.53,0,0,0-.12,3.89A4.43,4.43,0,0,1,8,4.05Z"/><path class="cls-1" d="M16.07,4.05a4.47,4.47,0,0,1,1.8.53A5.57,5.57,0,0,0,17.74.69.93.93,0,0,0,16.6,0,.92.92,0,0,0,16,1.17,3.79,3.79,0,0,1,16.07,4.05Z"/><path class="cls-1" d="M.48,5.46A.48.48,0,0,0,0,6.07,4.85,4.85,0,0,0,4.13,9.55,4.6,4.6,0,0,1,4.77,5.9,11.7,11.7,0,0,0,.48,5.46Z"/><path class="cls-1" d="M19.33,5.9A4.48,4.48,0,0,1,20,9.55a4.88,4.88,0,0,0,4.13-3.48.49.49,0,0,0-.47-.61C21.22,5.46,20.5,5.36,19.33,5.9Z"/><path class="cls-1" d="M11.66,5.48H8.31A2.89,2.89,0,0,0,5.45,8.67S6.67,16.75,6.71,17a3.85,3.85,0,0,1,3-1.42h4.7a3.87,3.87,0,0,1,3,1.38c.19-1.37.3-2.12.51-3.43A5.65,5.65,0,0,1,11.66,5.48Zm-2,4.38a.72.72,0,0,1-.72.72H9a.72.72,0,0,1-.72-.72V9.15a.72.72,0,0,1,1.44,0Z"/><path class="cls-1" d="M16,5.49H13.35A4.2,4.2,0,0,0,18.12,12c.08-.52.45-2.78.53-3.3A2.89,2.89,0,0,0,16,5.49ZM14.41,9.86V9.15a.72.72,0,0,1,1.43,0v.71a.72.72,0,0,1-.72.72h0A.71.71,0,0,1,14.41,9.86Z"/><path class="cls-1" d="M14.4,17H9.7a2.43,2.43,0,0,0-2.42,2.43v1.08A2.42,2.42,0,0,0,9.7,23h4.7a2.43,2.43,0,0,0,2.43-2.43V19.46A2.43,2.43,0,0,0,14.4,17Zm-5,3.29v-.5a.72.72,0,1,1,1.44,0v.5a.72.72,0,0,1-1.44,0Zm5.32,0a.72.72,0,1,1-1.44,0v-.5a.72.72,0,0,1,1.44,0Z"/></g></g></svg>