<?xml version="1.0" encoding="utf-8"?>
<!-- Generator: Adobe Illustrator 19.0.0, SVG Export Plug-In . SVG Version: 6.00 Build 0)  -->
<svg version="1.1" id="Capa_1" xmlns="http://www.w3.org/2000/svg" xmlns:xlink="http://www.w3.org/1999/xlink" x="0px" y="0px"
	 viewBox="0 14.8 100.1 72.5" style="enable-background:new 0 14.8 100.1 72.5;" xml:space="preserve">
<style type="text/css">
	.st0{fill:#F1CA2F;}
</style>
<path class="st0" d="M92.8,43.9H24.5l16.9-16.9c1.3-1.3,2.1-3.1,2.1-5s-0.7-3.7-2.1-5c-1.4-1.4-3.2-2.1-5.1-2.1
	c-1.9,0-3.7,0.8-5,2.1L2.3,45.9c-1.4,1.3-2.2,3.2-2.2,5.1s0.8,3.8,2.1,5l29.1,29.1c1.3,1.4,3.1,2.2,5.1,2.2c1.9,0,3.7-0.7,5.1-2.1
	c2.7-2.7,2.8-7.3,0-10.1L24.5,58.1h68.3c3.9,0,7.1-3.2,7.1-7.2C99.9,47,96.8,43.9,92.8,43.9z"/>
</svg>
