<svg xmlns="http://www.w3.org/2000/svg" viewBox="0 0 17.58 14.83"><defs><style>.cls-1{fill:#dedede;}</style></defs><title>icosalir</title><g id="Capa_2" data-name="Capa 2"><g id="ficha-fam"><g id="_Grupo_" data-name="&lt;Grupo&gt;"><path id="_Trazado_" data-name="&lt;Trazado&gt;" class="cls-1" d="M13.7,9.3a.83.83,0,0,0,0,1.17.82.82,0,0,0,1.16,0L17.34,8h0l.05-.06,0,0,0,0,0,0s0,0,0,0l0,0s0,0,0,0l0,0s0,0,0,0,0,0,0,0,0,0,0,0,0,0,0,0v0a.25.25,0,0,0,0-.08h0a.25.25,0,0,0,0-.08v0s0,0,0,0,0,0,0,0,0,0,0,0,0,0,0,0l0,0s0,0,0,0l0,0s0,0,0,0l0,0,0,0,0,0-.05-.06L14.86,4.36a.82.82,0,0,0-1.16,0,.83.83,0,0,0,0,1.17l1.06,1.06H5.22a.83.83,0,1,0,0,1.65h9.54Z"/><path id="_Trazado_2" data-name="&lt;Trazado&gt;" class="cls-1" d="M0,.82V14a.82.82,0,0,0,.82.82H11.26a.82.82,0,0,0,.82-.82v-3.3a.82.82,0,0,0-1.64,0v2.47H1.65V1.65h8.79V4.12a.82.82,0,0,0,1.64,0V.82A.82.82,0,0,0,11.26,0H.82A.82.82,0,0,0,0,.82Z"/></g></g></g></svg>