<svg xmlns="http://www.w3.org/2000/svg" viewBox="0 0 19.17 22.56"><defs><style>.cls-1{fill:#ffcb00;}</style></defs><title>icoSupervision</title><g id="Capa_2" data-name="Capa 2"><g id="detalle"><path class="cls-1" d="M5.29,1.32a2,2,0,0,0-2,2,2,2,0,0,0,4,0A2,2,0,0,0,5.29,1.32Z"/><path class="cls-1" d="M11.9,6.65H2.64A2.65,2.65,0,0,0,0,9.3v4a1.32,1.32,0,0,0,1.32,1.32c.21,0,1-.17,1.21-.21l-1.16,6.5a1.33,1.33,0,0,0,.91,1.64,1.32,1.32,0,0,0,1.63-.91l1.38-5.8,1.37,5.8a1.35,1.35,0,0,0,1.63.91,1.32,1.32,0,0,0,.91-1.64L7.93,13.74V9.3h4a1.33,1.33,0,0,0,0-2.65Z"/><path class="cls-1" d="M17.46,2.69,19,1.13a.64.64,0,0,0,.14-.72A.65.65,0,0,0,18.5,0H11.9a.67.67,0,0,0-.67.66V5.33H18.5A.66.66,0,0,0,19,4.2Z"/><path class="cls-1" d="M11.9,10.62h-.67V21.9a.67.67,0,0,0,1.33,0V10.52A2.45,2.45,0,0,1,11.9,10.62Z"/></g></g></svg>