<svg xmlns="http://www.w3.org/2000/svg" viewBox="0 0 16.96 16.51"><defs><style>.cls-1{fill:#dfdfdf;}</style></defs><title>icoTitMascotas</title><g id="Capa_2" data-name="Capa 2"><g id="ficha-fam"><path class="cls-1" d="M8.42,8.66c-2.72,0-5.37,3.8-5.37,6,0,1,1.23,1.84,2.8,1.84a3.89,3.89,0,0,0,1.38-.26A3.61,3.61,0,0,1,8.42,16a3.4,3.4,0,0,1,1.19.23,4.09,4.09,0,0,0,1.37.25c1.58,0,2.81-.81,2.81-1.84C13.79,12.46,11.13,8.66,8.42,8.66Z"/><path class="cls-1" d="M5.53,6.89c1.21,0,2.16-1.52,2.16-3.45S6.74,0,5.53,0,3.37,1.51,3.37,3.44,4.32,6.89,5.53,6.89Z"/><path class="cls-1" d="M11.3,6.89c1.22,0,2.17-1.52,2.17-3.45S12.52,0,11.3,0,9.14,1.51,9.14,3.44,10.09,6.89,11.3,6.89Z"/><path class="cls-1" d="M2.79,7.25a2.11,2.11,0,0,0-1.7-1.2.92.92,0,0,0-.52.14,1.81,1.81,0,0,0-.2,2.46A2.12,2.12,0,0,0,2.09,9.86a.85.85,0,0,0,.49-.13C3.27,9.28,3.36,8.26,2.79,7.25Z"/><path class="cls-1" d="M16.34,6.08a1.16,1.16,0,0,0-.59-.16A2.23,2.23,0,0,0,14,7.19c-.61,1.07-.51,2.16.24,2.64a1,1,0,0,0,.56.16,2.27,2.27,0,0,0,1.83-1.27A2,2,0,0,0,16.34,6.08Z"/></g></g></svg>