<svg xmlns="http://www.w3.org/2000/svg" viewBox="0 0 11.65 24.85"><defs><style>.cls-1{fill:#dfdfdf;}</style></defs><title>icoTitMovilidad</title><g id="Capa_2" data-name="Capa 2"><g id="ficha-mi"><path class="cls-1" d="M11.44,13.21,9,10.47a1.42,1.42,0,0,1-.31-.76L8.55,6.86V6.78A.79.79,0,0,0,7.76,6H4.35a1.16,1.16,0,0,0-1,.64l-3.28,7a.76.76,0,0,0,0,.61.73.73,0,0,0,.42.44l.48.22a.88.88,0,0,0,.33.07A.83.83,0,0,0,2,14.46l1.54-3.05v3.07l0,0L.94,22.66a1.27,1.27,0,0,0,.88,1.63l.18.05a1.34,1.34,0,0,0,.35,0,1.4,1.4,0,0,0,1.32-.95l2.42-7.6L7,17.94a8.82,8.82,0,0,1,.5,2l.41,3.88A1.17,1.17,0,0,0,9,24.85a1.53,1.53,0,0,0,.3,0l.18,0a1.49,1.49,0,0,0,1.09-1.6L10,18.45a8.63,8.63,0,0,0-.58-2.1l-.82-1.9,0-.07V13.1L10,14.65a.76.76,0,0,0,.55.24.73.73,0,0,0,.56-.25l.28-.29A.86.86,0,0,0,11.44,13.21Z"/><path class="cls-1" d="M6.28,5.31A2.66,2.66,0,1,0,3.62,2.65,2.66,2.66,0,0,0,6.28,5.31Z"/></g></g></svg>