<svg xmlns="http://www.w3.org/2000/svg" viewBox="0 0 11.35 14.22"><defs><style>.cls-1{fill:#dfdfdf;}</style></defs><title>icoTitEducacion</title><g id="Capa_2" data-name="Capa 2"><g id="ficha-mi"><path class="cls-1" d="M5.47,0A5.7,5.7,0,0,0,0,5.12,5.51,5.51,0,0,0,.1,6.75h0s0,.06,0,.18A6.26,6.26,0,0,0,.52,8.06a16.53,16.53,0,0,0,4.84,6,.5.5,0,0,0,.63,0,16.38,16.38,0,0,0,4.84-6.06,5.91,5.91,0,0,0,.38-1.12c0-.12,0-.18,0-.18h0a6.38,6.38,0,0,0,.1-1.08A5.68,5.68,0,0,0,5.47,0Zm.2,8.5A2.76,2.76,0,1,1,8.43,5.74,2.76,2.76,0,0,1,5.67,8.5Z"/></g></g></svg>