<svg xmlns="http://www.w3.org/2000/svg" viewBox="0 0 13.41 12.68"><defs><style>.cls-1{fill:#dfdfdf;}</style></defs><title>icoTitSalud</title><g id="Capa_2" data-name="Capa 2"><g id="ficha-mi"><path class="cls-1" d="M9.46,6.71l-.38-.78L7.91,8.11a.53.53,0,0,1-.45.28h0A.52.52,0,0,1,7,8.11l-.33-.6-.32.59a.53.53,0,0,1-.93,0L4.3,5.91l-.44.83A.53.53,0,0,1,3.4,7H.5c.78,1.76,2.54,3.7,5.76,5.54a.89.89,0,0,0,.89,0c3.22-1.84,5-3.78,5.76-5.54l-3,0A.54.54,0,0,1,9.46,6.71Z"/><path class="cls-1" d="M6.7,2C4.19-2.17-1.12.82.21,5.43h3L3.85,4.3A.53.53,0,0,1,4.32,4a.49.49,0,0,1,.45.29L5.89,6.49,6.2,5.9a.54.54,0,0,1,.46-.27.52.52,0,0,1,.46.27l.33.61L8.63,4.3a.52.52,0,0,1,.92,0l.54,1.09,3.1,0C14.54.82,9.22-2.18,6.7,2Z"/></g></g></svg>