<svg xmlns="http://www.w3.org/2000/svg" viewBox="0 0 16.51 15.66"><defs><style>.cls-1{fill:#dfdfdf;}</style></defs><title>icoTitGustos</title><g id="Capa_2" data-name="Capa 2"><g id="ficha-mi"><path class="cls-1" d="M4,15.66H.57A.56.56,0,0,1,0,15.09V6a.57.57,0,0,1,.57-.57H4A.57.57,0,0,1,4.55,6v9.11A.56.56,0,0,1,4,15.66Z"/><path class="cls-1" d="M16.5,6.69A1.48,1.48,0,0,0,15,5.41H10.16a6.13,6.13,0,0,0,2.36-3.69A1.5,1.5,0,0,0,11.12,0,1.41,1.41,0,0,0,9.69,1.42c0,.51-1.12,2-3.2,2.71h0A1.21,1.21,0,0,0,5.69,5.3v9.22a.57.57,0,0,0,.57.57H13.6a1.19,1.19,0,0,0,1.19-.95,1.14,1.14,0,0,0-1.13-1.33h.51a1.18,1.18,0,0,0,1.19-.94,1.15,1.15,0,0,0-1.13-1.33h.51a1.19,1.19,0,0,0,1.19-.95A1.15,1.15,0,0,0,14.8,8.26h.29A1.42,1.42,0,0,0,16.5,6.69Z"/></g></g></svg>