<svg xmlns="http://www.w3.org/2000/svg" viewBox="0 0 17.62 15.5"><defs><style>.cls-1{fill:#dfdfdf;}</style></defs><title>icoTitEdiucaccion</title><g id="Capa_2" data-name="Capa 2"><g id="ficha-mi"><g id="Layer_5" data-name="Layer 5"><path class="cls-1" d="M9.55,10.85a1.91,1.91,0,0,1-1,.26,1.93,1.93,0,0,1-1-.26L3,8.07s-.41-.25-.41.32v2.77c0,1.46,2.66,3,5.94,3s5.94-1.58,5.94-3V8.23c0-.45-.29-.23-.29-.23Z"/><path class="cls-1" d="M16.82,4.81a.46.46,0,0,0,0-.85L9.25.18a1.43,1.43,0,0,0-1.39,0L.29,4a.46.46,0,0,0,0,.85L7.86,9.46a1.49,1.49,0,0,0,1.39,0"/><path class="cls-1" d="M17.1,13.74V6.82s0-.24-.14-.16a3.76,3.76,0,0,0-.5.31.45.45,0,0,0-.09.32v6.45a.11.11,0,0,1-.08.11.9.9,0,0,0-.44.77.89.89,0,0,0,1.77,0,.87.87,0,0,0-.44-.77A.13.13,0,0,1,17.1,13.74Z"/></g></g></g></svg>