<svg xmlns="http://www.w3.org/2000/svg" viewBox="0 0 14 14.01"><defs><style>.cls-1{fill:#d6a8f6;}</style></defs><title>icotel</title><g id="Capa_2" data-name="Capa 2"><g id="ficha-mi"><path class="cls-1" d="M11.78,8.75a1.08,1.08,0,0,0-1.64,0c-.39.38-.77.76-1.15,1.15a.24.24,0,0,1-.32.06c-.25-.14-.51-.25-.75-.39A11.92,11.92,0,0,1,5.05,7,6.45,6.45,0,0,1,4,5.31a.22.22,0,0,1,0-.3c.39-.37.76-.75,1.14-1.13a1.1,1.1,0,0,0,0-1.68l-.91-.9C4,1,3.7.68,3.39.37a1.1,1.1,0,0,0-1.64,0C1.36.75,1,1.14.6,1.52A1.85,1.85,0,0,0,0,2.78a5.22,5.22,0,0,0,.42,2.3A14.11,14.11,0,0,0,2.91,9.21a15.36,15.36,0,0,0,5.08,4A7.29,7.29,0,0,0,10.8,14a2.05,2.05,0,0,0,1.77-.67c.33-.37.7-.71,1-1.06a1.1,1.1,0,0,0,0-1.67Z"/></g></g></svg>