<svg xmlns="http://www.w3.org/2000/svg" viewBox="0 0 20.28 23.69"><defs><style>.cls-1{fill:#ffcb00;}</style></defs><title>icoVigilancia</title><g id="Capa_2" data-name="Capa 2"><g id="detalle"><path class="cls-1" d="M15.67,0h-11A5.38,5.38,0,0,1,0,5.33C1.13,21.5,10.11,23.69,10.11,23.69,17.8,20,19.81,11.08,20.28,5.32A5.37,5.37,0,0,1,15.67,0ZM10,3.49A2.69,2.69,0,1,1,7.33,6.18,2.68,2.68,0,0,1,10,3.49Zm4.76,11.25a.91.91,0,0,1-.91.9H6.05a.91.91,0,0,1-.92-.9h0a4.81,4.81,0,0,1,3.08-4.49,3.27,3.27,0,0,0,3.51,0,4.83,4.83,0,0,1,3,4.49Z"/></g></g></svg>