<svg xmlns="http://www.w3.org/2000/svg" viewBox="0 0 20.47 21.23">
<defs>
<style>.cls-1{fill:#c6c6c6;}</style>
</defs>
<title>lupaMas_1</title>
    <g id="Capa_2" data-name="Capa 2">
        <g id="Capa_2-2" data-name="Capa 2">
            <path class="cls-1" d="M11.19,7.64H9.4V5.85a.88.88,0,1,0-1.76,0V7.64H5.85a.88.88,0,1,0,0,1.76H7.64v1.79a.88.88,0,0,0,1.76,0V9.4h1.79a.88.88,0,1,0,0-1.76Z"/>
            <path class="cls-1" d="M20.23,19.73l-5.34-5.55a8.59,8.59,0,1,0-1.31,1.19L19,21a.87.87,0,0,0,.63.27.9.9,0,0,0,.62-.25A.88.88,0,0,0,20.23,19.73Zm-5-11.21A6.76,6.76,0,1,1,8.52,1.76,6.76,6.76,0,0,1,15.27,8.52Z"/>
        </g>
    </g>
</svg>