<?xml version="1.0" encoding="utf-8"?>
<!-- Generator: Adobe Illustrator 22.0.1, SVG Export Plug-In . SVG Version: 6.00 Build 0)  -->
<svg version="1.1" id="Capa_3" xmlns="http://www.w3.org/2000/svg" xmlns:xlink="http://www.w3.org/1999/xlink" x="0px" y="0px"
	 viewBox="0 0 200 200" style="enable-background:new 0 0 200 200;" xml:space="preserve">
<style type="text/css">
	.st0{fill:#FFFFFF;}
</style>
<g>
	<path class="st0" d="M128.6,100c-6.5-4.9-15.5-7.5-26.2-7.5c-14.6,0-21.3-6.2-21.3-11.9c0-6.3,7.3-12.6,21.3-12.6
		c14.3,0,19.9,10,20.1,10.3c1.9,3.7,6.4,5.1,10.1,3.2c3.7-1.9,5.1-6.4,3.2-10.1c-0.3-0.7-7.5-14-24.8-17.5V42.4
		c0-4.1-3.3-7.5-7.5-7.5c-4.1,0-7.5,3.3-7.5,7.5v11.2c-19.5,2.3-29.8,14.7-29.8,27.1c0,7.4,3.7,14.4,10.1,19.3
		c6.5,4.9,15.5,7.5,26.2,7.5c9.3,0,14.4,2.5,17.1,4.5c2.7,2,4.2,4.7,4.2,7.4c0,6.3-7.3,12.6-21.3,12.6c-18,0-22.7-9.1-23-9.8
		c-1.6-3.7-5.9-5.5-9.6-4c-3.8,1.5-5.7,5.9-4.2,9.7c0.3,0.7,6.8,16.2,30.4,18.7v11.8c0,4.1,3.3,7.5,7.5,7.5c4.1,0,7.5-3.3,7.5-7.5
		v-12.1c18.2-2.9,27.7-14.9,27.7-26.9C138.6,111.9,135,104.9,128.6,100z"/>
	<path class="st0" d="M99.8,0.5C44.9,0.5,0.3,45.1,0.3,99.9s44.6,99.4,99.4,99.4s99.5-44.6,99.5-99.4S154.6,0.5,99.8,0.5z M99.8,177
		c-42.5,0-77-34.6-77-77c0-42.5,34.6-77,77-77c42.5,0,77,34.6,77,77C176.8,142.4,142.3,177,99.8,177z"/>
</g>
</svg>
