<?xml version="1.0" encoding="utf-8"?>
<!-- Generator: Adobe Illustrator 22.0.1, SVG Export Plug-In . SVG Version: 6.00 Build 0)  -->
<svg version="1.1" id="Capa_3" xmlns="http://www.w3.org/2000/svg" xmlns:xlink="http://www.w3.org/1999/xlink" x="0px" y="0px"
	 viewBox="0 0 200 200" style="enable-background:new 0 0 200 200;" xml:space="preserve">
<style type="text/css">
	.st0{fill:#FF03F3;}
</style>
<g>
	<path class="st0" d="M100,85.1c7.4,0,13.4-6,13.4-13.4V13.5c0-7.4-6-13.4-13.4-13.4s-13.4,6-13.4,13.4v58.2
		C86.6,79.1,92.6,85.1,100,85.1z"/>
	<path class="st0" d="M187.6,79.6c-2.9-8.8-7-17.1-12.4-24.7c-5.3-7.5-11.7-14.1-18.9-19.8c-5.9-4.5-14.3-3.5-18.8,2.4
		c-4.5,5.8-3.5,14.3,2.4,18.8c5.1,4,9.7,8.7,13.4,14c3.8,5.4,6.8,11.3,8.8,17.5c2.1,6.5,3.1,13.2,3.1,20.1c0,8.8-1.7,17.3-5.1,25.4
		c-3.3,7.8-8,14.8-14,20.7c-6,6-13,10.7-20.8,14c-16.1,6.8-34.7,6.8-50.8,0c-7.8-3.3-14.7-8-20.7-14s-10.7-13-14-20.7
		c-3.4-8-5.1-16.6-5.1-25.4c0-6.9,1.1-13.6,3.1-20.1c2-6.2,5-12.1,8.8-17.5c3.8-5.3,8.3-10,13.4-14c5.8-4.5,6.9-12.9,2.4-18.8
		s-12.9-6.9-18.8-2.4C36.3,40.7,30,47.4,24.7,54.9c-5.4,7.6-9.5,15.9-12.4,24.7C9.4,88.7,8,98.2,8,107.9c0,12.4,2.4,24.5,7.2,35.8
		c4.6,11,11.3,20.8,19.7,29.2c8.5,8.4,18.3,15.1,29.2,19.7c11.4,4.8,23.4,7.2,35.8,7.2s24.5-2.4,35.8-7.2
		c11-4.6,20.8-11.3,29.2-19.7s15.1-18.3,19.7-29.2c4.8-11.4,7.2-23.4,7.2-35.8C192,98.2,190.5,88.7,187.6,79.6z"/>
</g>
</svg>
