<svg xmlns="http://www.w3.org/2000/svg" viewBox="0 0 55 50.21"><defs><style>.cls-1{fill:#df282c;}</style></defs><title>solElektra</title><g id="Capa_2" data-name="Capa 2"><g id="Capa_1-2" data-name="Capa 1"><path class="cls-1" d="M29.5,25.3l.06,0-.25,1.2-.58-.1c2.07,8.21,7.84,10.69,14.5,10.69a15.11,15.11,0,0,0,11-5.27,28.62,28.62,0,0,0,.31-11.4L46.41,22a8,8,0,0,1-2.12,7c-3.4,3.7-7.06,3.43-9.91,1.94-2.62-1.36-4.11-4.59-4.62-5.87Z"/><path class="cls-1" d="M28.41,25s0,0,0,0l1.16-.38s.07.2.2.54c6.05-5.89,5.31-12.13,2-17.89A15.06,15.06,0,0,0,21.66.29a28.42,28.42,0,0,0-10,5.42L17.09,12a8,8,0,0,1,7.09-1.65c4.91,1.1,6.5,4.4,6.64,7.62.13,2.91-1.89,5.8-2.76,6.9Z"/><path class="cls-1" d="M28.4,24.91s0,0,0,0c.36.11.72.22,1.09.35l.26-.23c-.13-.34-.2-.54-.2-.54Z"/><path class="cls-1" d="M28.4,24.91s0,0,0,0c.36.11.72.22,1.09.35l.26-.23c-.13-.34-.2-.54-.2-.54Z"/><path class="cls-1" d="M18.07,37c-1.5-4.8.57-7.82,3.28-9.55,2.47-1.58,6-1.27,7.38-1.07,0-.11-.05-.23-.08-.34l-.06.05-.92-.81s.16-.18.39-.48a17.1,17.1,0,0,0-4.58-.69c-5.52,0-9.25,3.33-11.91,7.92a15.13,15.13,0,0,0-.93,12.18,28.59,28.59,0,0,0,9.71,6L23,42.36A8,8,0,0,1,18.07,37Z"/><path class="cls-1" d="M29.56,25.32l-.06,0c-.27.26-.55.52-.85.78,0,.11.05.23.08.34l.58.1Z"/><path class="cls-1" d="M29.56,25.32l-.06,0c-.27.26-.55.52-.85.78,0,.11.05.23.08.34l.58.1Z"/><path class="cls-1" d="M28.59,26.13l.06-.05c-.08-.37-.17-.74-.24-1.13l-.35-.11c-.23.3-.39.48-.39.48Z"/><path class="cls-1" d="M28.59,26.13l.06-.05c-.08-.37-.17-.74-.24-1.13l-.35-.11c-.23.3-.39.48-.39.48Z"/><path class="cls-1" d="M28.41,25c.07.39.16.76.24,1.13.3-.26.58-.52.85-.78C29.13,25.17,28.77,25.06,28.41,25Z"/><path class="cls-1" d="M28.41,25c.07.39.16.76.24,1.13.3-.26.58-.52.85-.78C29.13,25.17,28.77,25.06,28.41,25Z"/><path class="cls-1" d="M28.41,25c.07.39.16.76.24,1.13.3-.26.58-.52.85-.78C29.13,25.17,28.77,25.06,28.41,25Z"/><path class="cls-1" d="M40.11,23.25a9.59,9.59,0,0,0,6.6-3.48c3.79-4.86,2.34-8.55,1.42-10.32a11.88,11.88,0,0,0-3.75-3.7L39.32,8.4C49.1,14.24,40.11,23.25,40.11,23.25Z"/><polygon class="cls-1" points="44.38 5.75 43.8 3.98 42.49 0 37.65 2.84 39.32 8.4 44.38 5.75"/><path class="cls-1" d="M8.85,25C9,13.61,21.32,16.88,21.32,16.88a9.55,9.55,0,0,0-6.31-4,13.37,13.37,0,0,0-2-.15,8.4,8.4,0,0,0-7.63,4.06A11.9,11.9,0,0,0,4,21.94Z"/><polygon class="cls-1" points="8.86 24.99 8.86 24.99 8.86 24.99 4.03 21.94 2.79 23.33 0 26.45 4.88 29.22 8.86 24.99"/><polygon class="cls-1" points="8.86 24.99 8.86 24.99 4.03 21.94 8.86 24.99"/><polygon class="cls-1" points="8.86 24.99 8.86 24.99 4.03 21.94 8.86 24.99"/><path class="cls-1" d="M25.15,36.21a9.59,9.59,0,0,0-.29,7.45c2.31,5.72,6.23,6.3,8.23,6.4a11.88,11.88,0,0,0,5.08-1.41L38.4,43C28.46,48.5,25.15,36.21,25.15,36.21Z"/><polygon class="cls-1" points="38.4 42.95 38.17 48.65 40 49.03 44.09 49.89 44.05 44.28 38.4 42.95"/></g></g></svg>