<?xml version="1.0" encoding="utf-8"?>
<!-- Generator: Adobe Illustrator 22.0.1, SVG Export Plug-In . SVG Version: 6.00 Build 0)  -->
<svg version="1.1" id="Capa_3" xmlns="http://www.w3.org/2000/svg" xmlns:xlink="http://www.w3.org/1999/xlink" x="0px" y="0px"
	 viewBox="0 0 200 200" style="enable-background:new 0 0 200 200;" xml:space="preserve">
<style type="text/css">
	.st0{fill:#FFFFFF;}
</style>
<g>
	<path class="st0" d="M66.3,101.5c5.3-5.3,5.3-13.9,0-19.2L50.5,66.5h87.2c7.5,0,13.6-6.1,13.6-13.6s-6.1-13.6-13.6-13.6H50.5
		l15.8-15.8c5.3-5.3,5.3-13.9,0-19.2c-5.3-5.3-13.9-5.3-19.2,0l-39,39c-2.7,2.7-4,6.1-4,9.6c0,3.5,1.3,7,4,9.6l39,39
		c2.7,2.7,6.1,4,9.6,4S63.6,104.2,66.3,101.5z"/>
	<path class="st0" d="M192.7,137.2l-39-39c-5.3-5.3-13.9-5.3-19.2,0c-5.3,5.3-5.3,13.9,0,19.2l15.8,15.8H63
		c-7.5,0-13.6,6.1-13.6,13.6c0,7.5,6.1,13.6,13.6,13.6h87.2l-15.8,15.8c-5.3,5.3-5.3,13.9,0,19.2c2.7,2.7,6.1,4,9.6,4
		c3.5,0,7-1.3,9.6-4l39-39c2.7-2.7,4-6.1,4-9.6C196.7,143.3,195.3,139.8,192.7,137.2z"/>
</g>
</svg>
