<svg xmlns="http://www.w3.org/2000/svg" viewBox="0 0 70.83 51.2"><defs><style>.cls-1{fill:#a6d4e0;}.cls-2{fill:#caeaed;}.cls-3{fill:#88bed1;}.cls-4{fill:#fff;}.cls-5{fill:#96c1cc;}</style></defs><title>Recurso 6</title><g id="Capa_2" data-name="Capa 2"><g id="Casas"><path class="cls-1" d="M27.85,51c4.59.21,13.84.46,18.51-.91s9.54-3.77,10.37-6.92c.57-2.13-1.27-5.69-3.29-8s-1-3.94,3.36-5.15,11.27-3.37,13.28-6.75-.24-6.83-4.42-9.12-8.44-2.78-12.47-3.43a179.14,179.14,0,0,0-20-1,131.22,131.22,0,0,0-19.6,2C7.51,13.05,1.93,14.43.62,18.32c-1.21,3.6,0,4.73,2.82,6s8,3.4,3.11,6.7-7.83,5.68-6,10S13.87,50.36,27.85,51Z"/><path class="cls-2" d="M27.6,45.28a41.6,41.6,0,0,0,13.29-.79c5-1.22,9.49-2.09,8.52-6.27s-3.86-6.2-2.89-8.69,4.26-2.25,7-3.05,5.3-1.45,5.3-4.67-4.63-3.87-7.8-4.66-7.81-1.75-11.13-.91c-3.09.79-5.69,1.87-4.48,5s5.48,6.51-4,7.64S15,30.66,11.54,33.55s-2.17,5.55.8,7.16A49.37,49.37,0,0,0,27.6,45.28Z"/><path class="cls-2" d="M15.65,23.17a43,43,0,0,0,8.64.56c3.54-.29,5.92-.22,6-2.05s-1.23-3.27.52-4.58,2.61-2.68,1-3.39-6-1.15-9.91-.67-7.26.93-10,2.68S8.75,19.9,10.47,21A14.24,14.24,0,0,0,15.65,23.17Z"/><ellipse class="cls-3" cx="20.61" cy="37.21" rx="2.25" ry="1.14"/><path class="cls-4" d="M21.22,38.3l-.46.05h-.44V10.12h.9Z"/><path class="cls-3" d="M21.66,10.8v6.59s2.61-.14,3.46-1.91,1.83-2.19,2.61-2.3.22-.74-.41-1.12A6.61,6.61,0,0,0,24,11.13C22.85,11.24,22.09,11.39,21.66,10.8Z"/><rect class="cls-5" x="65.28" y="15.89" width="0.69" height="4.93"/><path class="cls-2" d="M69.21,11.31a1.73,1.73,0,0,0-1.06-1.59A2.21,2.21,0,0,0,68,6.41s0-.07,0-.11a1.59,1.59,0,0,0-2.77-1.07A1.55,1.55,0,0,0,64.37,5a1.6,1.6,0,0,0-1.56,1.27,2.26,2.26,0,0,0-1.09,1.93,2.22,2.22,0,0,0,1.08,1.91,2.25,2.25,0,0,0,.84,4.29,1.42,1.42,0,0,0-.43,1,1.38,1.38,0,0,0,1.38,1.38,1.35,1.35,0,0,0,.91-.36,1.22,1.22,0,0,0,2-1,.31.31,0,0,0,0-.1,1.61,1.61,0,0,0,1-2.55A1.74,1.74,0,0,0,69.21,11.31Z"/><rect class="cls-5" x="52.91" y="11.19" width="0.69" height="4.93"/><path class="cls-2" d="M56.84,6.61A1.75,1.75,0,0,0,55.78,5a2.19,2.19,0,0,0,.67-1.59,2.23,2.23,0,0,0-.81-1.71s0-.08,0-.11A1.6,1.6,0,0,0,54.05,0a1.58,1.58,0,0,0-1.17.52A1.65,1.65,0,0,0,52,.26a1.59,1.59,0,0,0-1.56,1.27,2.24,2.24,0,0,0,0,3.84,2.25,2.25,0,0,0,.83,4.29,1.38,1.38,0,0,0,1,2.37,1.41,1.41,0,0,0,.91-.35,1.21,1.21,0,0,0,.74.26,1.23,1.23,0,0,0,1.23-1.23s0-.06,0-.1A1.61,1.61,0,0,0,56.36,9a1.63,1.63,0,0,0-.32-1A1.71,1.71,0,0,0,56.84,6.61Z"/><rect class="cls-5" x="59.36" y="12.87" width="0.69" height="4.93"/><path class="cls-1" d="M63.29,8.29a1.74,1.74,0,0,0-1-1.6,2.23,2.23,0,0,0,.67-1.59,2.2,2.2,0,0,0-.82-1.71.52.52,0,0,0,0-.11A1.6,1.6,0,0,0,59.33,2.2a1.63,1.63,0,0,0-.88-.26,1.6,1.6,0,0,0-1.56,1.27A2.23,2.23,0,0,0,55.8,5.13a2.27,2.27,0,0,0,1.08,1.92,2.25,2.25,0,0,0,.84,4.29,1.37,1.37,0,0,0,1,2.37,1.39,1.39,0,0,0,.91-.35,1.23,1.23,0,0,0,2-1s0-.06,0-.1a1.62,1.62,0,0,0,1.27-1.58,1.58,1.58,0,0,0-.33-1A1.71,1.71,0,0,0,63.29,8.29Z"/><path class="cls-3" d="M43.08,6.72a1.57,1.57,0,0,0-1.46,1,2,2,0,0,0-3,.13h-.1a1.45,1.45,0,0,0-1.46,1.45,1.47,1.47,0,0,0,.48,1.08,1.45,1.45,0,0,0,.91,2.22,2,2,0,0,0,3.51,0,2.05,2.05,0,0,0,3.91-.76A1.25,1.25,0,0,0,48,10.93a1.23,1.23,0,0,0-.32-.83,1.08,1.08,0,0,0,.24-.68A1.12,1.12,0,0,0,46.82,8.3h-.09a1.46,1.46,0,0,0-1.44-1.16,1.42,1.42,0,0,0-.88.3A1.57,1.57,0,0,0,43.08,6.72Z"/></g></g></svg>