<svg xmlns="http://www.w3.org/2000/svg" viewBox="0 0 49.14 48.96"><defs><style>.cls-1{fill:#a6d4e0;}.cls-2{fill:#88bed1;}.cls-3{fill:#caeaed;}.cls-4{fill:#76adc0;}.cls-5{fill:#fff;}</style></defs><title>Recurso 4</title><g id="Capa_2" data-name="Capa 2"><g id="Casas"><rect class="cls-1" x="12.05" y="7.44" width="34.59" height="41.52"/><rect class="cls-2" x="11.31" y="6.07" width="36.58" height="1.37"/><rect class="cls-2" x="10.8" y="4.37" width="38.34" height="1.7"/><polygon class="cls-3" points="40 0 19.93 0 19.93 2.26 20.86 2.26 20.86 3.29 21.42 3.29 21.42 4.37 38.51 4.37 38.51 3.29 39.08 3.29 39.08 2.26 40 2.26 40 0"/><rect class="cls-3" x="33.41" y="7.44" width="1.42" height="31.35"/><rect class="cls-3" x="29.25" y="7.44" width="1.42" height="11.37"/><rect class="cls-3" x="25.1" y="7.44" width="1.42" height="11.37"/><rect class="cls-2" x="31.68" y="38.79" width="14.97" height="10.17"/><path class="cls-4" d="M41.25,41.08h.3a2.09,2.09,0,0,1,2.09,2.09V49a0,0,0,0,1,0,0H39.16a0,0,0,0,1,0,0V43.18A2.09,2.09,0,0,1,41.25,41.08Z"/><path class="cls-4" d="M31.53,41.08h.3a2.09,2.09,0,0,1,2.09,2.09V49a0,0,0,0,1,0,0H29.43a0,0,0,0,1,0,0V43.18A2.09,2.09,0,0,1,31.53,41.08Z"/><rect class="cls-1" x="0.48" y="20.92" width="31.2" height="28.04"/><rect class="cls-2" y="18.81" width="32.15" height="2.11"/><rect class="cls-2" x="0.48" y="41.16" width="31.2" height="7.8"/><rect class="cls-5" x="4.59" y="26.1" width="2.8" height="4.2"/><rect class="cls-5" x="11.56" y="26.1" width="2.8" height="4.2"/><rect class="cls-5" x="18.53" y="26.1" width="2.8" height="4.2"/><rect class="cls-5" x="25.5" y="26.1" width="2.8" height="4.2"/><rect class="cls-5" x="4.59" y="33.25" width="2.8" height="4.2"/><rect class="cls-5" x="11.56" y="33.25" width="2.8" height="4.2"/><rect class="cls-5" x="18.53" y="33.25" width="2.8" height="4.2"/><rect class="cls-5" x="25.5" y="33.25" width="2.8" height="4.2"/><path class="cls-4" d="M5.9,44.75h.19a1.31,1.31,0,0,1,1.31,1.31V49a0,0,0,0,1,0,0H4.59a0,0,0,0,1,0,0v-2.9A1.31,1.31,0,0,1,5.9,44.75Z"/><path class="cls-4" d="M12.87,44.75h.19a1.31,1.31,0,0,1,1.31,1.31V49a0,0,0,0,1,0,0h-2.8a0,0,0,0,1,0,0v-2.9A1.31,1.31,0,0,1,12.87,44.75Z"/><path class="cls-4" d="M19.84,44.75H20a1.31,1.31,0,0,1,1.31,1.31V49a0,0,0,0,1,0,0h-2.8a0,0,0,0,1,0,0v-2.9A1.31,1.31,0,0,1,19.84,44.75Z"/><path class="cls-4" d="M26.81,44.75H27a1.31,1.31,0,0,1,1.31,1.31V49a0,0,0,0,1,0,0H25.5a0,0,0,0,1,0,0v-2.9a1.31,1.31,0,0,1,1.31-1.31Z"/><rect class="cls-5" x="36.67" y="11.06" width="2.8" height="4.98"/><rect class="cls-5" x="41.75" y="11.06" width="2.8" height="4.98"/><rect class="cls-5" x="36.67" y="20.51" width="2.8" height="4.98"/><rect class="cls-5" x="41.75" y="20.51" width="2.8" height="4.98"/><rect class="cls-5" x="36.67" y="29.96" width="2.8" height="4.98"/><rect class="cls-5" x="41.75" y="29.96" width="2.8" height="4.98"/><rect class="cls-5" x="14.36" y="11.06" width="2.8" height="4.98"/><rect class="cls-5" x="19.44" y="11.06" width="2.8" height="4.98"/></g></g></svg>