<svg xmlns="http://www.w3.org/2000/svg" viewBox="0 0 89.42 42.33"><defs><style>.cls-1{fill:#a6d4e0;}.cls-2{fill:#88bed1;}.cls-3{fill:#caeaed;}</style></defs><title>Recurso 3</title><g id="Capa_2" data-name="Capa 2"><g id="Casas"><polygon class="cls-1" points="55.25 5.68 45.44 0 35.7 5.68 10.07 5.68 10.07 6.53 79.18 6.53 79.18 5.68 55.25 5.68"/><polygon class="cls-2" points="79.18 6.53 54.39 6.53 45.52 1.31 36.81 6.53 10.24 6.53 4.86 15.13 84.39 15.13 79.18 6.53"/><polygon class="cls-1" points="64.16 15.13 64.16 8.98 60.18 8.98 60.18 10.87 31.23 10.87 31.23 8.98 27.25 8.98 27.25 15.13 0 15.13 0 16.72 0.88 16.72 0.88 18.31 1.5 18.31 1.5 42.33 87.39 42.33 87.39 18.31 88.36 18.31 88.36 16.72 89.42 16.72 89.42 15.13 64.16 15.13"/><path class="cls-3" d="M58.55,20.52V17.63h1.9l0-1.21L46.93,11.65H44L31,16.39v1.24h1.79v2.89H1.5v16.6H87.39V20.52Zm-51,14.92H4.86V22.28H7.51Zm4.85,0H9.71V22.28h2.65Zm4.86,0H14.57V22.28h2.65Zm9.71,0H24.28V22.28h2.65Zm-4.58,0H19.7V22.28h2.65Zm9.71,0H29.41V22.28h2.65Zm4.86,0H34.27V22.28h2.65Zm4.85,0H39.12V22.28h2.65Zm4.86,0H44V22.28h2.65Zm4.85,0H48.84V22.28h2.64Zm4.86,0H53.69V22.28h2.65Zm4.86,0H58.55V22.28H61.2Zm4.85,0H63.4V22.28h2.65Zm4.4,0h-2.6l0-13.16h2.65Zm4.21,0H72V22.28h2.65Zm4.26,0H76.27V22.28h2.65Zm4.85,0H81.12V22.28h2.65Z"/><polygon class="cls-1" points="36.78 17.26 54.4 17.26 46.01 13.89 45.14 13.89 36.78 17.26"/></g></g></svg>