<svg xmlns="http://www.w3.org/2000/svg" viewBox="0 0 72.37 40.91"><defs><style>.cls-1{fill:#a6d4e0;}.cls-2{fill:#88bed1;}.cls-3{fill:#caeaed;}.cls-4{fill:#fff;}</style></defs><title>Recurso 5</title><g id="Capa_2" data-name="Capa 2"><g id="Casas"><rect class="cls-1" x="1.92" y="12.77" width="68.06" height="28.14"/><rect class="cls-2" x="1.2" y="11.32" width="69.69" height="1.45"/><rect class="cls-1" y="9.44" width="72.37" height="1.87"/><polygon class="cls-3" points="51.5 31.3 51.5 12.77 20.74 12.77 20.74 31.3 1.93 31.3 1.93 32.61 69.98 32.61 69.98 31.3 51.5 31.3"/><rect class="cls-1" x="23.16" y="15.07" width="2.94" height="16.23"/><rect class="cls-1" x="28.87" y="15.07" width="2.94" height="16.23"/><rect class="cls-1" x="34.58" y="15.07" width="2.94" height="16.23"/><rect class="cls-1" x="40.29" y="15.07" width="2.94" height="16.23"/><rect class="cls-1" x="46" y="15.07" width="2.94" height="16.23"/><rect class="cls-4" x="55.88" y="19.32" width="3.01" height="7.51" rx="0.53"/><rect class="cls-4" x="62.36" y="19.32" width="3.01" height="7.51" rx="0.53"/><rect class="cls-4" x="13.09" y="19.32" width="3.01" height="7.51" rx="0.53"/><rect class="cls-4" x="6.87" y="19.32" width="3.01" height="7.51" rx="0.53"/><path class="cls-2" d="M23.32,34.11h.27a1.4,1.4,0,0,1,1.4,1.4v5.4a0,0,0,0,1,0,0H21.92a0,0,0,0,1,0,0v-5.4A1.4,1.4,0,0,1,23.32,34.11Z"/><path class="cls-2" d="M29.59,34.11h.27a1.4,1.4,0,0,1,1.4,1.4v5.4a0,0,0,0,1,0,0H28.19a0,0,0,0,1,0,0v-5.4A1.4,1.4,0,0,1,29.59,34.11Z"/><path class="cls-2" d="M35.85,34.11h.27a1.4,1.4,0,0,1,1.4,1.4v5.4a0,0,0,0,1,0,0H34.45a0,0,0,0,1,0,0v-5.4A1.4,1.4,0,0,1,35.85,34.11Z"/><path class="cls-2" d="M42.12,34.11h.27a1.4,1.4,0,0,1,1.4,1.4v5.4a0,0,0,0,1,0,0H40.72a0,0,0,0,1,0,0v-5.4A1.4,1.4,0,0,1,42.12,34.11Z"/><path class="cls-2" d="M48.38,34.11h.27a1.4,1.4,0,0,1,1.4,1.4v5.4a0,0,0,0,1,0,0H47a0,0,0,0,1,0,0v-5.4a1.4,1.4,0,0,1,1.4-1.4Z"/><path class="cls-1" d="M20.46,9.44,35,.33a2.15,2.15,0,0,1,2.29,0l14.52,9.1a.88.88,0,0,1-.47,1.63H20.93A.88.88,0,0,1,20.46,9.44Z"/><path class="cls-3" d="M46.85,9.05,36.17,2.38a.24.24,0,0,0-.23,0L25.26,9.05a.21.21,0,0,0,.11.39H46.74A.21.21,0,0,0,46.85,9.05Z"/></g></g></svg>