<svg xmlns="http://www.w3.org/2000/svg" viewBox="0 0 61.07 40.33"><defs><style>.cls-1{fill:#a6d4e0;}.cls-2{fill:#fff;}.cls-3{fill:#caeaed;}.cls-4{fill:#88bed1;}</style></defs><title>Recurso 9</title><g id="Capa_2" data-name="Capa 2"><g id="Casas"><polygon class="cls-1" points="0 9.97 0 11.14 1.17 11.14 1.17 12.3 2.11 12.3 2.11 40.33 59.11 40.33 59.11 12.3 59.98 12.3 59.98 11.14 61.07 11.14 61.07 9.97 0 9.97"/><path class="cls-2" d="M54,31.59h.16a1.08,1.08,0,0,1,1.08,1.08V36.4a0,0,0,0,1,0,0H52.92a0,0,0,0,1,0,0V32.68A1.08,1.08,0,0,1,54,31.59Z"/><path class="cls-2" d="M7.2,31.59h.16a1.08,1.08,0,0,1,1.08,1.08V36.4a0,0,0,0,1,0,0H6.11a0,0,0,0,1,0,0V32.68A1.08,1.08,0,0,1,7.2,31.59Z"/><rect class="cls-3" x="2.11" y="12.3" width="57" height="7.35"/><rect class="cls-3" x="2.11" y="20.82" width="57" height="1.89"/><polygon class="cls-4" points="36.32 40.33 24.61 40.33 24.61 5.9 30.46 0 36.32 5.9 36.32 40.33"/><path class="cls-2" d="M30.38,12.39h.16a1.08,1.08,0,0,1,1.08,1.08v4.79a0,0,0,0,1,0,0H29.3a0,0,0,0,1,0,0V13.48A1.08,1.08,0,0,1,30.38,12.39Z"/><path class="cls-3" d="M47.68,30.41l-6-6a.74.74,0,0,0-.95-.07l-4.38,3.2-5.18-5.28a.72.72,0,0,0-1.05,0L24.6,28.08l-4.23-3.69a.73.73,0,0,0-1,.06l-5.53,6v9.92h3.35v-6.9a2.66,2.66,0,1,1,5.31,0v6.9h3.73V32.61a4.23,4.23,0,0,1,8.45,0v7.72h3.88v-6.9a2.66,2.66,0,0,1,2.66-2.66h0a2.66,2.66,0,0,1,2.65,2.66v6.9h3.82Z"/><circle class="cls-2" cx="7.28" cy="16.45" r="1.58"/><circle class="cls-2" cx="13.62" cy="16.45" r="1.58"/><circle class="cls-2" cx="19.97" cy="16.45" r="1.58"/><circle class="cls-2" cx="41.47" cy="16.45" r="1.58"/><circle class="cls-2" cx="47.82" cy="16.45" r="1.58"/><circle class="cls-2" cx="54.16" cy="16.45" r="1.58"/><path class="cls-4" d="M54.09,10,45.75,3.49a3.55,3.55,0,0,0-1.94-.76H17.74a3.59,3.59,0,0,0-2.22.77L7.19,10H17.74v0H47.68l0,0Z"/></g></g></svg>