<svg xmlns="http://www.w3.org/2000/svg" viewBox="0 0 38.24 50.4"><defs><style>.cls-1{fill:#a6d4e0;}.cls-2{fill:#76adc0;}</style></defs><title>Recurso 10</title><g id="Capa_2" data-name="Capa 2"><g id="Casas"><path class="cls-1" d="M19,24.75l-.18,2.68a.21.21,0,0,1-.32.09l-1.33-1.13L14.4,28.28l4.81,3.6L20.59,50.4H23.4l.69-17a.48.48,0,0,1,1,0l.79,17.06h2.63L30,31.93,21,20.58A9,9,0,0,1,19,24.75Z"/><path class="cls-1" d="M37.49,23.48l-7-6.24s-1.85-2.16-4.18-2.16l-.94,2.7a.51.51,0,0,1-.94,0l-1.27-2.75s-2.36.06-2.38,1.19L32.21,30.5,37.28,27A2.22,2.22,0,0,0,37.49,23.48ZM33,26l-2.14,1.5a.22.22,0,0,1-.34-.18l0-4.12a.22.22,0,0,1,.29-.21S32.57,24.6,33,24.88A.69.69,0,0,1,33,26Z"/><path class="cls-1" d="M27.36,9.47H22.89a.55.55,0,0,1-.32-.1c-.19-.12-.52-.36-.83-.6,0,.11,0,.22,0,.33a3.34,3.34,0,0,0,6.68,0c0-.07,0-.13,0-.2l-.71.48A.62.62,0,0,1,27.36,9.47Z"/><path class="cls-1" d="M22.81,8.3a.46.46,0,0,0,.3.11h4.06a.49.49,0,0,0,.34-.15l.7-.74a.68.68,0,0,0,.19-.47V5.62a1.07,1.07,0,0,0-1.07-1.06H22.67A1.07,1.07,0,0,0,21.6,5.62V7a.69.69,0,0,0,.25.53Z"/><path class="cls-2" d="M16.28,24.47c1.38-1.47,2.44-2,2.72-5.95S20,5.39,20,5.39L10,0,0,5,.71,17.67S.76,21.89,3.2,24A46.81,46.81,0,0,0,10,28.46S14.86,26,16.28,24.47Zm-1.35-1.92a24.26,24.26,0,0,1-4.82,3.11V3l7.8,4.23s-.57,7.35-.8,10.55S16,21.42,14.93,22.55Z"/></g></g></svg>