<?xml version="1.0" encoding="utf-8"?>
<!-- Generator: Adobe Illustrator 23.0.4, SVG Export Plug-In . SVG Version: 6.00 Build 0)  -->
<svg version="1.1" id="Capa_1" xmlns="http://www.w3.org/2000/svg" xmlns:xlink="http://www.w3.org/1999/xlink" x="0px" y="0px"
	 viewBox="0 0 1433.7 977" style="enable-background:new 0 0 1433.7 977;" xml:space="preserve">
<style type="text/css">
	.st0{opacity:0.6;fill:none;stroke:#DDDDDD;stroke-width:8;stroke-miterlimit:10;enable-background:new    ;}
</style>
<title>Recurso 1</title>
<g>
	<g id="Casas">
		<path class="st0" d="M1406.4,600l-116,21.8c-10,1.9-18.1,9.1-21.2,18.8L1234.1,752c-3.9,12.5-14.8,21.5-27.7,23.1l-104.2,13.1
			c-4.8,0.6-9.6,0.4-14.3-0.6l-57.4-11.8c-10.5-2.2-19.9-8.1-26.4-16.7l-89.8-119c-3.6-4.8-6-10.5-6.9-16.5l-17.9-118.1
			c-0.6-4.2-0.5-8.4,0.3-12.5l17.2-83.2c2.3-11.2-4.9-22.1-16-24.4c-0.3-0.1-0.6-0.1-1-0.2l-46.7-7.4c-12.8-2-23.7-10.6-28.7-22.6
			L768,243.5c-2.1-5-5.6-9.2-10.2-12.1l-59.2-37.8c-9.2-5.9-21.5-3.8-28.2,4.9L654,219.5c-7,9-19.9,10.6-28.9,3.6
			c-0.8-0.6-1.6-1.4-2.3-2.1L511.5,103.2c-3.7-4-8.6-6.7-13.9-7.9L424.5,79c-7.8-1.7-15.8,2.5-18.8,9.9
			c-4.2,10.6-14.9,17.2-26.3,16.3l-104.7-8.1L98.4,6.1C95.7,4.7,92.8,4,89.8,4H18.6C10.5,4,4,10.5,4,18.6c0,1.4,0.2,2.8,0.6,4.2
			l41.8,140.3c1.2,4,3.3,7.6,6.2,10.6l50.7,52.2c5.9,6.1,5.8,15.8-0.3,21.7c-0.6,0.6-1.2,1.1-1.9,1.6l-12.5,8.9
			c-5.4,3.9-6.6,11.5-2.7,16.9c0.3,0.4,0.7,0.9,1.1,1.3l86.8,89.8c0,0,14.9,17.6,20.2,48.3s71.1,91.8,71.1,91.8l27.6,24.6
			c5.3,4.7,13.4,4.2,18.1-1.1c4.3-4.9,4.3-12.1-0.1-17l-32.9-36.5c-4.3-4.8-7.5-10.6-9.3-16.8l-37.7-132.8l-124.7-173L97.4,62
			l62,25.4c6.9,2.8,12.3,8.5,14.7,15.5L217,225.7c2.2,6.2,5.4,11.9,9.6,16.9l272.8,324.8c4.1,4.8,6.3,11,6.3,17.3v114.2
			c0,7.5,4.1,14.4,10.6,18l395.5,216.6c4.9,2.7,10.5,3.3,15.9,1.9l118.7-31.4c5.9-1.5,12.1-0.8,17.4,2.1l121.7,65.7
			c5.4,2.9,12.1,0.9,15-4.5c0.5-1,0.9-2,1.1-3.1l8.8-43.5c2-9.7,9-17.5,18.4-20.5l42.8-13.5c4.5-1.4,7-6.2,5.6-10.7
			c-0.3-0.9-0.7-1.7-1.3-2.5l-24.6-33.4c0,0-11.4-31.6,23.7-35.1s115-26.3,115-26.3s18.4,0,23.7-39.5c3.6-26.8,11.2-83.4,15.7-117.1
			c1.4-10.7-6.1-20.6-16.8-22.1C1410.6,599.6,1408.5,599.7,1406.4,600z"/>
	</g>
</g>
</svg>
