<svg xmlns="http://www.w3.org/2000/svg" viewBox="0 0 42.74 31.85"><defs><style>.cls-1{fill:#9c9b9b;}.cls-2{fill:#006139;}.cls-3{fill:#fff;}.cls-4{fill:#6f6259;}</style></defs><title>Recurso 11</title><g id="Capa_2" data-name="Capa 2"><g id="Casas"><path class="cls-1" d="M.72,27.83A17.49,17.49,0,0,1,2.6,27.6L0,28.33a13.43,13.43,0,0,0,2.21,0L1,28.62a1.63,1.63,0,0,0,1.07.05c.63-.18,2.21-.29,2.55-.47a15.15,15.15,0,0,0,2.49,1.11c.2-.1.91.07,1.5-2.34,0,0,2.82,3.09,6.16,3.22A9.49,9.49,0,0,0,18.65,29s-.15,1.66.61,1.82c0,0,.7.6,1-1.94a2.45,2.45,0,0,1-.06-.44,3.85,3.85,0,0,0,.11.47,9.49,9.49,0,0,1,1.83-.15l-1.09-.23,2.31-.12-2.59-.13L22.06,28l-1.34-.06.17-.35a7.43,7.43,0,0,0,1.52-.06,3.22,3.22,0,0,0,1.64-2.24c.09-1-2.09-.82-2.6-.85,0,0-.63.36-1,.56a2.25,2.25,0,0,1-1.73-.29,7.1,7.1,0,0,1-.85-.75s1-1,1.31-1.27a5.43,5.43,0,0,0,2.45-1.12l-1.13.15a6.28,6.28,0,0,0,2-1.33,17.58,17.58,0,0,1-1.87.77,13.34,13.34,0,0,0,1.19-1.55l-1.68,1.34,1.1-1.41s-1.41,1-1.61,1.14.46-.87.53-1.25c0,0,.09-.32-.9.9s-1,1.57-1,1.57-2.11.84-2.15,1.91c0,.66.8,1.49.8,1.49a3.89,3.89,0,0,1-3.18.65A12.5,12.5,0,0,1,11,24.3s0-.42-.23-.5c0,0,2.59-1,2.25-2s-.81-2.21-.81-2.21.74-2.25.91-2.94L13,16.38,12,18.48a9.81,9.81,0,0,0,.32-2.6l-.6,2.35s0-1.94,0-2.53l-.24,1.8s-.26-1.1-.35-1.45a5.46,5.46,0,0,0,.06,1.38s-.26.11-.46-.76c0,0-.23.22,0,1.21a4.84,4.84,0,0,0,.1.89,4.94,4.94,0,0,0,.33,1.63,3.39,3.39,0,0,1,.36,1,9.47,9.47,0,0,0-2.43.75L9,22.11a2.18,2.18,0,0,1-.64-.92c-.07-.19-.14-.38-.2-.58A15.34,15.34,0,0,1,14.88,2.55l.18-.1a15.27,15.27,0,0,1,8.32-2l.54-.26a20.42,20.42,0,0,0-6.49.16A18.37,18.37,0,0,0,11,3.15,16.46,16.46,0,0,0,5.88,20.83a12,12,0,0,0,1.45,4.45,7.67,7.67,0,0,0-.41,1.34c-.08.56-.25.78-.82.52A8.54,8.54,0,0,0,4,26.8a4.27,4.27,0,0,1-2.36-.59s-.25.34.59.61l-1.6.06s1,.29,1.66.41l-2.24.42S-.19,28,.72,27.83Z"/><path class="cls-2" d="M22.17,28.75l.43.09A2,2,0,0,0,22.17,28.75Z"/><path class="cls-3" d="M7.67,23.08s4.42,5.71,7.26,5.25a22,22,0,0,0,5.18-1.56s.43-.51-1.2.1-4.47,2.21-7,0S8,22.84,7.67,23.08Z"/><path class="cls-3" d="M8.4,26.81a2.6,2.6,0,0,1-.83-1.35s.5.93.88,1.1Z"/><path class="cls-3" d="M9.17,22.38s.27,1.1,1,1.26C10.2,23.64,9.26,23,9.17,22.38Z"/><path class="cls-3" d="M19,28.67l1-.42A1.37,1.37,0,0,1,19,28.67Z"/><path class="cls-4" d="M42,4a17.53,17.53,0,0,1-1.89.23l2.6-.73a13.42,13.42,0,0,0-2.21,0l1.2-.34a1.59,1.59,0,0,0-1.06,0c-.63.18-2.21.29-2.56.47a14.35,14.35,0,0,0-2.49-1.11c-.2.1-.9-.07-1.5,2.34,0,0-3.39-3.32-6.15-3.22a12.05,12.05,0,0,0-3.88,1.2s.16-1.66-.6-1.82c0,0-.7-.6-1,1.94a3.09,3.09,0,0,1,.07.44c0-.14-.06-.29-.11-.47a9.53,9.53,0,0,1-1.84.15l1.09.23-2.3.12,2.58.13-1.26.29L22,3.93l-.18.35a7.46,7.46,0,0,0-1.52.06A3.21,3.21,0,0,0,18.7,6.58c-.1,1,2.08.82,2.59.85,0,0,.64-.36,1-.56a2.26,2.26,0,0,1,1.73.29,7.55,7.55,0,0,1,.84.75s-1,1-1.3,1.27a5.49,5.49,0,0,0-2.46,1.12l1.13-.15a6.4,6.4,0,0,0-2,1.33,17.58,17.58,0,0,1,1.87-.77A12.44,12.44,0,0,0,21,12.26l1.68-1.34-1.11,1.41s1.42-1,1.62-1.14-.46.87-.54,1.25c0,0-.09.31.9-.9s1-1.57,1-1.57,2.11-.9,2.16-1.91c0-.66-.8-1.49-.8-1.49a6.56,6.56,0,0,1,3.18-.65,6.34,6.34,0,0,1,2.66,1.63s0,.42.23.5c0,0-2.59,1-2.24,2s.8,2.21.8,2.21-.74,2.25-.91,2.95l.12.28.95-2.11a9.72,9.72,0,0,0-.33,2.6L31,13.62s0,1.94.05,2.53l.23-1.8s.27,1.1.35,1.45a5.72,5.72,0,0,0-.05-1.38s.25-.11.46.76c0,0,.22-.22,0-1.21a6,6,0,0,0-.1-.89,5.08,5.08,0,0,0-.34-1.63,3.45,3.45,0,0,1-.35-1,9.91,9.91,0,0,0,2.43-.75l.11.06a2.26,2.26,0,0,1,.63.92c.08.2.14.39.21.58A15.33,15.33,0,0,1,27.86,29.3l-.17.1a15.3,15.3,0,0,1-8.33,2l-.54.26a20.39,20.39,0,0,0,6.49-.16,18.35,18.35,0,0,0,6.45-2.81A16.43,16.43,0,0,0,36.86,11a12,12,0,0,0-1.44-4.45,8,8,0,0,0,.4-1.34c.09-.56.26-.78.82-.52a8.54,8.54,0,0,0,2.08.34,4.22,4.22,0,0,1,2.36.6s.25-.35-.59-.62L42.09,5s-1-.29-1.65-.41l2.23-.42S42.93,3.85,42,4Z"/><path class="cls-2" d="M20.57,3.1,20.14,3A1.54,1.54,0,0,0,20.57,3.1Z"/><path class="cls-3" d="M35.07,8.77s-4.42-5.71-7.25-5.25a22,22,0,0,0-5.18,1.56s-.44.51,1.19-.1,4.47-2.21,7,0S34.74,9,35.07,8.77Z"/><path class="cls-3" d="M34.35,5a2.62,2.62,0,0,1,.82,1.35s-.5-.93-.87-1.1Z"/><path class="cls-3" d="M33.57,9.47s-.26-1.1-1-1.26C32.55,8.21,33.49,8.88,33.57,9.47Z"/><path class="cls-3" d="M23.79,3.18l-.95.42A1.33,1.33,0,0,1,23.79,3.18Z"/></g></g></svg>