<svg xmlns="http://www.w3.org/2000/svg" viewBox="0 0 83.34 53.25"><defs><style>.cls-1{fill:#a6d4e0;}.cls-2{fill:#76adc0;}.cls-3{fill:#caeaed;}.cls-4{fill:#fff;}.cls-5{fill:#88bed1;}</style></defs><title>Recurso 14</title><g id="Capa_2" data-name="Capa 2"><g id="Casas"><path class="cls-1" d="M28.68,53.25H14.29V19.14a5.77,5.77,0,0,1,1-3.31l3.3-4.76a3.48,3.48,0,0,1,5.71,0l3.3,4.76a5.77,5.77,0,0,1,1,3.31Z"/><rect class="cls-2" x="9.18" y="52.05" width="23.13" height="1.2"/><rect class="cls-3" x="28.67" y="2.9" width="9.09" height="15.37" rx="1.01" transform="translate(17.21 -20.38) rotate(45)"/><rect class="cls-3" x="3.68" y="23.09" width="9.09" height="15.37" rx="1.01" transform="translate(24.17 3.2) rotate(45)"/><rect class="cls-3" x="6.11" y="0.49" width="9.09" height="15.37" rx="1.01" transform="translate(23.92 6.11) rotate(133.67)"/><rect class="cls-3" x="26.52" y="25.6" width="9.09" height="15.37" rx="1.01" transform="translate(76.59 33.8) rotate(133.67)"/><path class="cls-2" d="M23.14,20.5a2.32,2.32,0,0,0-.21-.95L38,4.47l-1-1-15,15a2.3,2.3,0,0,0-2.47,0l-15-15-1,1L18.62,19.55a2.31,2.31,0,0,0-.2.95,2.28,2.28,0,0,0,.36,1.24L3.55,37l1,1L19.82,22.66a2.39,2.39,0,0,0,1,.2,2.31,2.31,0,0,0,.95-.2L37,38l1-1L22.78,21.74A2.37,2.37,0,0,0,23.14,20.5Z"/><rect class="cls-2" x="53.58" y="39.67" width="29.05" height="13.58"/><rect class="cls-4" x="62.54" y="42.09" width="2.02" height="8.51"/><rect class="cls-4" x="67.29" y="42.09" width="2.02" height="8.51"/><rect class="cls-4" x="72.03" y="42.09" width="2.02" height="8.51"/><rect class="cls-4" x="76.78" y="42.09" width="2.02" height="8.51"/><polygon class="cls-1" points="82.5 38.6 81.85 29.82 46.5 29.82 46.5 39.46 53.58 39.46 53.58 39.67 83.34 39.67 83.34 38.6 82.5 38.6"/><polygon class="cls-5" points="26.29 34.16 42.66 30.46 59.03 34.16 59.03 53.25 26.29 53.25 26.29 34.16"/><polygon class="cls-2" points="22.66 32.88 42.66 27.26 62.34 32.91 62.34 35.3 42.66 30.46 22.66 35.42 22.66 32.88"/><polygon class="cls-2" points="28.3 16.71 42.45 12.62 56.23 16.57 56.23 19.21 42.66 15.87 28.3 19.44 28.3 16.71"/><polygon class="cls-1" points="51.95 53.25 32.78 53.25 32.78 18.3 42.5 15.57 51.95 18.16 51.95 53.25"/><path class="cls-3" d="M37.52,20.12v9.65h9.65V20.12Zm8.27,8.32H38.92V21.57h6.87Z"/><path class="cls-3" d="M32.78,37.34V53.25H52V37.34Zm1.49,2.74,6.81,5.07-6.81,5.14ZM35.67,39H49.23l-6.78,5.11Zm6.78,7.16,7.35,5.48H35.1Zm1.37-1,6.73-5V50.23Z"/><rect class="cls-2" x="38.92" y="21.57" width="6.86" height="6.86"/></g></g></svg>