<svg xmlns="http://www.w3.org/2000/svg" viewBox="0 0 30.45 29.88"><defs><style>.cls-1{fill:#9c9b9b;}.cls-2{fill:#6f6259;}</style></defs><title>Recurso 12</title><g id="Capa_2" data-name="Capa 2"><g id="Casas"><polygon class="cls-1" points="30.39 29.86 19.39 29.86 19.39 25.9 30.39 26.94 30.39 29.86"/><polygon class="cls-1" points="11.06 29.86 0.07 29.86 0.07 26.94 11.06 25.9 11.06 29.86"/><path class="cls-2" d="M30.45,15.23A15.23,15.23,0,1,0,11.09,29.88v-4a11.46,11.46,0,1,1,8.27,0v4A15.23,15.23,0,0,0,30.45,15.23Z"/><path class="cls-2" d="M16.59,14.45l-1.31-2.56H13.9v2.56h-.62V8.69h2.21a1.56,1.56,0,0,1,1.71,1.6A1.51,1.51,0,0,1,16,11.84l1.37,2.61ZM15.44,9.24H13.9v2.11h1.54a1.06,1.06,0,1,0,0-2.11Z"/><path class="cls-2" d="M14.72,22V18.05L13.3,21.17h-.47l-1.44-3.12V22h-.55V16.81h.55l1.69,3.67,1.64-3.67h.55V22Z"/><path class="cls-2" d="M16.55,22V16.81h.55v4.68h2.64V22Z"/><rect class="cls-2" x="7.87" y="15.35" width="14.2" height="0.5"/></g></g></svg>