<svg xmlns="http://www.w3.org/2000/svg" viewBox="0 0 96.01 48.83"><defs><style>.cls-1,.cls-2{fill:#6f6259;}.cls-2{fill-rule:evenodd;}</style></defs><title>Recurso 1</title><g id="Capa_2" data-name="Capa 2"><g id="Casas"><path class="cls-1" d="M.57,33.32v7.36H5.12v.49H0V33.32Z"/><path class="cls-1" d="M8.45,41.17H7.83l3.55-7.85h.69l3.56,7.85H15l-1.17-2.63h-3.3l.23-.5h2.86l-1.88-4.27Z"/><path class="cls-1" d="M18.89,40.9v-.61a8.17,8.17,0,0,0,2.72.44c1.65,0,2.47-.62,2.47-1.87,0-.91-.54-1.37-1.61-1.37H20.86c-1.46,0-2.19-.65-2.19-2q0-2.25,3.21-2.25a9.8,9.8,0,0,1,2.55.33v.55a8.39,8.39,0,0,0-2.55-.39c-1.75,0-2.63.59-2.63,1.76,0,.95.54,1.42,1.61,1.42h1.61c1.46,0,2.18.65,2.18,1.92,0,1.58-1,2.37-3,2.37A11,11,0,0,1,18.89,40.9Z"/><path class="cls-1" d="M33.37,41.17V33.32h3.29c1.53,0,2.29.72,2.29,2.16s-1.22,2.32-3.67,2.71l-.09-.53q3.12-.44,3.12-2.13a1.51,1.51,0,0,0-1.74-1.69H34v7.33Z"/><path class="cls-1" d="M41.65,41.17H41l3.55-7.85h.68l3.57,7.85h-.69L47,38.54h-3.3l.23-.5h2.85l-1.88-4.27Z"/><path class="cls-1" d="M52.15,41.17V33.32h3.24q2.13,0,2.13,1.89,0,1.62-2.31,2.31l2.65,3.65h-.79l-2.61-3.64v-.39c1.61-.23,2.42-.86,2.42-1.89s-.53-1.41-1.58-1.41H52.73v7.33Z"/><path class="cls-1" d="M60.9,37.26q0-4,3.94-4c2.58,0,3.88,1.33,3.88,4s-1.3,4-3.88,4S60.9,39.9,60.9,37.26Zm3.94,3.47c2.16,0,3.25-1.17,3.25-3.51S67,33.76,64.84,33.76s-3.31,1.16-3.31,3.46S62.63,40.73,64.84,40.73Z"/><path class="cls-1" d="M77.52,33.32v.5H74.83v7.35h-.58V33.82H71.62v-.5Z"/><path class="cls-1" d="M79.8,41.17h-.61l3.55-7.85h.68L87,41.17H86.3l-1.16-2.63h-3.3l.23-.5h2.86l-1.88-4.27Z"/><path class="cls-1" d="M90.25,40.9v-.61a8.12,8.12,0,0,0,2.72.44c1.64,0,2.47-.62,2.47-1.87,0-.91-.54-1.37-1.61-1.37H92.22c-1.46,0-2.19-.65-2.19-2q0-2.25,3.21-2.25a9.8,9.8,0,0,1,2.55.33v.55a8.39,8.39,0,0,0-2.55-.39c-1.75,0-2.63.59-2.63,1.76,0,.95.54,1.42,1.61,1.42h1.61c1.46,0,2.18.65,2.18,1.92,0,1.58-1,2.37-3,2.37A11,11,0,0,1,90.25,40.9Z"/><path class="cls-1" d="M21.6,48a2.52,2.52,0,0,1-.79.12,1.32,1.32,0,0,1-1.5-1.48q0-1.41,1.5-1.41a2.52,2.52,0,0,1,.79.12v.32a2.17,2.17,0,0,0-.75-.14q-1.17,0-1.17,1.11a1,1,0,0,0,1.17,1.18,2.17,2.17,0,0,0,.75-.14Z"/><path class="cls-1" d="M22.58,45.27v2.55h1.48v.3H22.21V45.27Z"/><path class="cls-1" d="M24.49,47V45.27h.36V47a.82.82,0,1,0,1.63,0V45.27h.38V47c0,.74-.4,1.12-1.19,1.12S24.49,47.76,24.49,47Z"/><path class="cls-1" d="M27.51,48.12V45.27h1.21c.55,0,.82.23.82.67a.72.72,0,0,1-.53.69.61.61,0,0,1,.56.65c0,.56-.29.84-.89.84Zm1.15-.3a.45.45,0,0,0,.51-.52c0-.33-.23-.5-.68-.5h-.16v-.24c.54-.07.82-.27.82-.59s-.16-.4-.46-.4h-.81v2.25Z"/><path class="cls-1" d="M31.15,48.12V45.27h1q1.41,0,1.41,1.35,0,1.5-1.41,1.5Zm1-.3c.69,0,1-.4,1-1.2a.93.93,0,0,0-1-1h-.67v2.25Z"/><path class="cls-1" d="M36,45.27v.3H34.51v1h1.42v.3H34.51v1H36v.3H34.14V45.27Z"/><path class="cls-1" d="M39.73,48a2,2,0,0,1-.74.13c-1,0-1.55-.5-1.55-1.48s.5-1.41,1.5-1.41a2.52,2.52,0,0,1,.79.12v.32a2.12,2.12,0,0,0-.75-.14q-1.17,0-1.17,1.11A1,1,0,0,0,39,47.84a2,2,0,0,0,.4-.05v-1h.37Z"/><path class="cls-1" d="M40.24,46.7a1.42,1.42,0,1,1,2.84,0,1.42,1.42,0,1,1-2.84,0Zm1.43,1.14c.68,0,1-.38,1-1.15s-.34-1.14-1-1.14-1,.38-1,1.14S41,47.84,41.67,47.84Z"/><path class="cls-1" d="M44,45.27v2.55h1.49v.3H43.65V45.27Z"/><path class="cls-1" d="M47.81,45.27v.3H46.32v1h1.42v.3H46.32v1.29H46V45.27Z"/><path class="cls-1" d="M55.22,48.12V45.27h.36v1.26h1.69V45.27h.37v2.85h-.37V46.83H55.58v1.29Z"/><path class="cls-1" d="M58.29,47V45.27h.37V47a.82.82,0,1,0,1.63,0V45.27h.37V47c0,.74-.39,1.12-1.18,1.12S58.29,47.76,58.29,47Z"/><path class="cls-1" d="M61.41,48.12H61l1.21-2.85h.4l1.22,2.85h-.41l-.37-.9h-.94l.1-.29H63l-.53-1.29Z"/><path class="cls-1" d="M65.87,45.27v.3H65v2.55h-.37V45.57h-.9v-.3Z"/><path class="cls-1" d="M66.29,47V45.27h.37V47a.82.82,0,1,0,1.63,0V45.27h.37V47c0,.74-.4,1.12-1.19,1.12S66.29,47.76,66.29,47Z"/><path class="cls-1" d="M69.68,45.27v2.55h1.49v.3H69.31V45.27Z"/><path class="cls-1" d="M73.46,48a2.52,2.52,0,0,1-.79.12,1.32,1.32,0,0,1-1.5-1.48q0-1.41,1.5-1.41a2.52,2.52,0,0,1,.79.12v.32a2.18,2.18,0,0,0-.76-.14c-.77,0-1.16.37-1.16,1.11a1,1,0,0,0,1.16,1.18,2.18,2.18,0,0,0,.76-.14Z"/><path class="cls-1" d="M74,46.7a1.42,1.42,0,1,1,1.43,1.44A1.27,1.27,0,0,1,74,46.7Zm1.43,1.14c.68,0,1-.38,1-1.15s-.34-1.14-1-1.14-1,.38-1,1.14S74.7,47.84,75.4,47.84Z"/><path class="cls-2" d="M53.88,46a1.21,1.21,0,0,0-1.2-.94,1.21,1.21,0,0,0-1.41-.78,1.24,1.24,0,0,0-.88.78,1.33,1.33,0,0,0-.28,0,1.22,1.22,0,0,0-.47,2.15,1.17,1.17,0,0,0,0,.67,1.21,1.21,0,0,0,1.45.92,1.28,1.28,0,0,0,.43-.19,1.19,1.19,0,0,0,1,.21,1.23,1.23,0,0,0,.92-1.46.94.94,0,0,0,0-.09A1.23,1.23,0,0,0,53.88,46ZM51.2,44.77a.73.73,0,0,1,1,.31.37.37,0,0,1,.05.11l-1.43.35A.73.73,0,0,1,51.2,44.77Zm-1.54,1.62a.73.73,0,0,1,.55-.88h.11V47A.74.74,0,0,1,49.66,46.39Zm1.05,1.93a.73.73,0,0,1-.65-.82.23.23,0,0,1,0-.11l1.37.51A.73.73,0,0,1,50.71,48.32Zm.76-.43c0-.08.06-.46-.26-.58L50.33,47c.08,0,.45-.09.46-.44l0-1c0,.07.2.41.54.33l.88-.23a.49.49,0,0,0,0,.63l.59.64c-.08,0-.6-.09-.79.2Zm1.44,0a.73.73,0,0,1-.94.44l-.11,0,.8-1.26A.78.78,0,0,1,52.91,47.86Zm.4-1.22a.35.35,0,0,1-.07.09l-1-1.09a.72.72,0,0,1,.86,0A.73.73,0,0,1,53.31,46.64Z"/><path class="cls-1" d="M77.11,18.78c0-1.61-1.33-3.76-11-8.55-.55-.22-1.27-.5-2-.82C61.37,4.24,53.09.4,49.68.12l-.39,0c-.39,0-.8-.07-1.2-.08C43.65,0,37.88,3.65,37.23,4.07h0A6.93,6.93,0,0,0,35,5a41.91,41.91,0,0,0-6.61,5,40.81,40.81,0,0,1-6,4.39,11.68,11.68,0,0,0-2.05,1.47,5.58,5.58,0,0,0-.44.55,4.33,4.33,0,0,0-.58,1.81A2.64,2.64,0,0,0,20,19.69a7.81,7.81,0,0,0,5.9,2.36,7.87,7.87,0,0,0,.84,0,31.11,31.11,0,0,0,3.83-.62,25.39,25.39,0,0,1,5-.69,8,8,0,0,1,3.24.62l.15.06a15.67,15.67,0,0,0,5.77,1.68,5.09,5.09,0,0,0,.77-.06c0,1,.08,2.29,0,3.05,0,.53.32.61.52.61a1.76,1.76,0,0,0,.61-.15H47a3.64,3.64,0,0,1,.83.1,2,2,0,0,0,.51.08h.32a1.32,1.32,0,0,0,1.27-.61A4.65,4.65,0,0,0,50,23a3,3,0,0,0-.51-1.31c0-.31,0-.63-.05-.94L52,20.52a37.56,37.56,0,0,1,4.51-.29,26.76,26.76,0,0,1,3.37.2,31,31,0,0,1,3.62.74,22.69,22.69,0,0,0,5.2.85H69c4.9,0,7.62-1,8.08-2.87a.11.11,0,0,0,0,0C77.11,19,77.11,18.9,77.11,18.78Zm-27.43,6a1.55,1.55,0,0,1,0-.22c0-.09,0-.19,0-.29l0-.74c0-.11,0-.23,0-.35l0-.6c.05.15.09.32.14.51a4.48,4.48,0,0,1-.07,2.75c0-.05,0-.11,0-.17s0-.1,0-.15v0a1.93,1.93,0,0,1,0-.24v-.47ZM48,26h.26a1.15,1.15,0,0,1,1,.33,1.28,1.28,0,0,1-.56.1l-.32,0a1.86,1.86,0,0,1-.46-.07,4.93,4.93,0,0,0-.54-.09A1.81,1.81,0,0,1,48,26ZM25.94,21.72a7.48,7.48,0,0,1-5.65-2.24,2.3,2.3,0,0,1-.6-1.3,3.86,3.86,0,0,1,.53-1.64,3.65,3.65,0,0,1,.4-.5,11.15,11.15,0,0,1,2-1.42,40.72,40.72,0,0,0,6-4.43C33.44,6,35.89,4.82,36.86,4.5a1.13,1.13,0,0,0-.1.13l-.17.25,0,0L36.49,5c0,.08-.09.17-.14.28l0,0,0,.09q-.09.23-.15.42c0,.1-.05.2-.07.3a.13.13,0,0,1,0,.06v.07c0,.06,0,.11,0,.17a.19.19,0,0,0,0,.08v.22a.19.19,0,0,0,0,.08V7s0,.09,0,.13,0,.07,0,.1v.09a.61.61,0,0,0,0,.13.52.52,0,0,0,0,.11l0,.07a.65.65,0,0,0,0,.13l0,.12,0,.08a.56.56,0,0,0,0,.12s0,.07,0,.11l0,0,.08.18.06.11,0,.07c0,.05,0,.1.07.14l.07.12,0,0c0,.05.07.11.11.17l.09.14,0,0a.88.88,0,0,0,.12.17l.1.14,0,0,.13.17.11.14,0,0,.14.17.15.16.16.17.17.18.17.16.19.18-.14,0-.16,0-.12,0-.35.05-.43.08-.21,0-.31.06-.39.1-.22.06-.27.07-.36.12-.2.07-.24.08-.33.14-.09,0-.1.05-.2.08-.33.18-.06,0-.1.05a.83.83,0,0,0-.16.09,4,4,0,0,0-.34.23l0,0-.07.05-.11.08a4.06,4.06,0,0,0-.48.43,3,3,0,0,0-.92,2.92c.41,1.52,2.22,3,4.52,3.68A30.57,30.57,0,0,0,45.13,21h.36v.27s0,.07,0,.11,0,.28,0,.41v.15c0,.14,0,.27,0,.41v.17c0,.06,0,.12,0,.18a4.68,4.68,0,0,1-.76.06,15.39,15.39,0,0,1-5.64-1.65L39,21a8.11,8.11,0,0,0-3.37-.65,26,26,0,0,0-5.05.7,34.69,34.69,0,0,1-3.79.62Q26.35,21.72,25.94,21.72Zm23.28-7.33v.49a2.64,2.64,0,0,1,0,.28c0,.06,0,.12,0,.17v.12c0,.11,0,.22,0,.33l-.45-.12-.1,0-.2-.05-.47-.14-.25-.07-.15,0-.47-.15-.36-.11-.43-.14-.2-.07-.17-.06-.4-.14-.17-.06-.2-.07-.31-.13-.23-.09-.19-.07-.3-.13L43.92,14l-.21-.08-.66-.32-.41-.2-.07,0-.06,0-.33-.19-.12-.06L41.92,13l-.24-.15a.57.57,0,0,1-.13-.08l-.16-.09-.24-.16-.17-.1-.06,0a3.37,3.37,0,0,1-.31-.21l-.2-.14,0,0-.31-.22-.21-.16-.05,0-.28-.22-.23-.18,0,0-.08-.06a40.64,40.64,0,0,1,4.15-.29,12.89,12.89,0,0,1,3.35.39l2.12.33c0,.05,0,.1.05.15l0,.1a.19.19,0,0,1,0,.07c0,.13.07.24.1.36s.11.52.15.8c0,.06,0,.12,0,.18a.57.57,0,0,1,0,.13v.07a4.38,4.38,0,0,1,0,.52,2,2,0,0,1,0,.25v.23Zm-.8,6.13c0-.07,0-.15.08-.22a.14.14,0,0,0,0-.06v0c0-.13.1-.26.14-.39l0-.08c0-.05,0-.09,0-.14s.09-.3.13-.46l0-.06a.56.56,0,0,1,0-.12c0-.1,0-.2.07-.3l0,.69c0,.36.05.74.08,1.13Zm-2.57-.08v-.21a2.45,2.45,0,0,1,0-.27l0-.26,0-.21,0-.23L46,19l0-.1,0-.1c0-.06,0-.12,0-.17l.08-.21,0-.07,0-.08.06-.15.1-.17,0-.06a.25.25,0,0,0,0-.07l.07-.11a1.85,1.85,0,0,1,.14-.14l0-.05,0,0a.27.27,0,0,1,.07-.08l.21-.14,0,0,0,0,.07,0a1.68,1.68,0,0,1,.41-.17h0l.22-.05h.24l.12,0h.08l.09,0,0,0,.05,0,.06,0,0,0,0,0,0,.05a.1.1,0,0,1,0,.05l.05,0,0,.06,0,.06,0,0,0,0c0,.23-.09.47-.15.71,0,.06,0,.11,0,.17l0,.11-.12.46c0,.08,0,.16-.07.24l0,.07c0,.14-.08.28-.13.41a2.64,2.64,0,0,1-.1.3c-.07.2-.13.38-.2.55v0l-1.16.06h-.21l-.86,0C45.84,20.57,45.84,20.5,45.85,20.44Zm.33,2.4.2-.08.09,0,.11-.05a1.13,1.13,0,0,0,.21-.12h0l0,0,.08-.05.25-.18,0,0,.06,0c.11-.1.21-.19.31-.3a0,0,0,0,0,0,0s0,0,0,0l.24-.29a.35.35,0,0,1,0-.08l0-.05,0,0,.14-.21a1.17,1.17,0,0,1,0-.11l.06-.12.07-.13.87-.06c0,.26,0,.53.05.8h-.09a1.69,1.69,0,0,0-1,.23,1.75,1.75,0,0,0-.61,1.34c0,.14,0,.29,0,.42a2,2,0,0,1-.22,1c-.14.23-.46.23-.79.24h0a2.11,2.11,0,0,0-.36,0l-.19,0c0-.54,0-1.19,0-2l.08,0,.12,0ZM63.06,16.5a3.73,3.73,0,0,1-.3.26,5,5,0,0,1-3.18.88c-.34,0-.71,0-1.13-.06a28,28,0,0,1-2.9-.47L54.7,17l-.76-.14-.21,0-.53-.1-.17,0-.53-.11-.14,0-.54-.12-.09,0c-.19,0-.38-.08-.56-.12h-.06l-.57-.13h0L49.94,16h0l-.43-.11c0-.12,0-.24,0-.35v-.18c0-.05,0-.11,0-.16a2.45,2.45,0,0,0,0-.27v-.75a2,2,0,0,0,0-.25,3.58,3.58,0,0,0,0-.48v-.11a.66.66,0,0,0,0-.14,1.23,1.23,0,0,0,0-.2q-.06-.45-.15-.84l-.09-.35,0-.16a.56.56,0,0,1,0-.12l.24-.08.22-.08.25-.1A7.71,7.71,0,0,0,52,10l.66-.57a8.85,8.85,0,0,1,1.18-.94l.06,0,.31-.18.07,0,0,0,.31-.16L54.74,8l.09,0,.07,0,.24-.1.21-.07.18-.07.2-.06h0a7.26,7.26,0,0,1,1.47-.15,12.64,12.64,0,0,1,5.59,1.64l.08,0,.25.12.11,0,.07,0h0l0-.06v.07l.34.16a1,1,0,0,0,.18.08c0,.09,0,.17,0,.26V10a.31.31,0,0,0,0,.08.5.5,0,0,0,0,.12c0,.2.05.4.07.59C64.17,12.2,64.42,15.15,63.06,16.5ZM63.36,9l-.31-.15h0c-.33-.16-.66-.34-1-.53-.6-.23-1-.4-1.44-.53h0a9.29,9.29,0,0,0-2.88-.63h-.16l-.18,0H57a7.87,7.87,0,0,0-1.23.12l-.14.06h0l-.05,0c-.21.07-.41.13-.59.21a7.34,7.34,0,0,0-2.56,1.63,9.24,9.24,0,0,1-1.26,1,8.27,8.27,0,0,1-1.46.72l-.44.18h-.06l-.2.07a.69.69,0,0,0,0-.13l-.07-.19a2.44,2.44,0,0,1-.1-.24l-.09-.19-.1-.21a2.56,2.56,0,0,0-.11-.24c0-.07-.07-.13-.1-.19l-.1-.19c0-.09-.09-.18-.15-.27L48,9.14l-.12-.21-.15-.24-.12-.19-.14-.2-.15-.24-.15-.2-.14-.19-.16-.21-.18-.23-.15-.18-.14-.18-.21-.23-.08-.09-.08-.09-.13-.14-.09-.1-.07-.07-.06-.06A1.59,1.59,0,0,1,45.58,6l0,0-.08-.08a.52.52,0,0,1-.11-.1l-.14-.13-.12-.1L45,5.46,45,5.4l-.18-.14,0,0s0,0-.06-.05l-.14-.12L44.41,5l-.2-.14,0,0-.06,0-.2-.13,0,0-.06,0-.25-.14-.07,0-.24-.12,0,0,0,0-.26-.11,0,0,0,0L42.56,4h0l-.06,0-.28-.08h-.07l-.34-.07h0l-.37,0a2.23,2.23,0,0,0-.37,0h-.2A6.51,6.51,0,0,0,39.48,4a5.1,5.1,0,0,1-1.41.26h0a1.27,1.27,0,0,1-.34,0C39,3.38,44.1.34,48.08.33c.39,0,.8,0,1.18.08l.39,0c3.27.27,11.15,4,14,8.73ZM37.45,4.45a1.81,1.81,0,0,0,.56.1h.05a5.32,5.32,0,0,0,1.51-.28A6.65,6.65,0,0,1,40.84,4h.4l.32,0,.21,0h0l.37.08.15.06.07,0,.4.15.11,0,.06,0a4.74,4.74,0,0,1,.44.23l.08,0,0,0L44,5.1l0,0,0,0a5.43,5.43,0,0,1,.5.38l0,0,.51.45,0,0,.51.51,0,0,.49.54,0,0c.16.19.31.37.45.56l0,.06.39.54.07.1.33.51.06.09,0,.07.27.46s0,.09.07.14l0,.07c.07.13.15.27.21.4a2,2,0,0,1,.1.21l0,.08c0,.1.1.21.14.31l.09.2,0,.1,0,.11-1.94-.31a13,13,0,0,0-3.36-.43,38.44,38.44,0,0,0-4.16.32l-.37,0-.17-.15,0,0-.2-.19,0,0,0-.05-.14-.14-.12-.12A.86.86,0,0,0,38,10l-.06-.07-.06-.07-.12-.13-.05-.07-.08-.09-.09-.11-.06-.08-.08-.1a.83.83,0,0,1-.08-.12L37.21,9l-.08-.11-.06-.1L37,8.73a.75.75,0,0,1-.07-.12l-.07-.11,0-.09a.75.75,0,0,1-.07-.12l0-.1,0-.1A.61.61,0,0,1,36.62,8a.49.49,0,0,1,0-.11l0-.1a.56.56,0,0,1,0-.12l0-.11,0-.1,0-.12s0-.08,0-.12l0-.12s0-.06,0-.09,0-.09,0-.14v-.2a1.09,1.09,0,0,1,0-.18v0a.09.09,0,0,0,0,0,.13.13,0,0,1,0-.06A1.47,1.47,0,0,1,36.45,6a3.17,3.17,0,0,1,.14-.4s0-.05,0-.08l0-.06,0,0,.12-.23.07-.1,0-.06,0,0,.13-.2.08-.1.07-.08a1,1,0,0,1,.13-.16Zm8.1,15.47c0,.08,0,.17,0,.26v.13a.57.57,0,0,1,0,.13c0,.07,0,.13,0,.2h-.38a30.28,30.28,0,0,1-8.84-1.21c-2.19-.65-3.91-2-4.29-3.45a2.65,2.65,0,0,1,.84-2.61,3.72,3.72,0,0,1,.46-.41s0,0,.05-.05l.06,0,.43-.29.09-.05.09,0,.45-.24.11-.05.09,0,.51-.21.13,0,.1,0c.18-.06.36-.13.56-.18l.14,0,.11,0h0l.58-.14a.9.9,0,0,1,.16,0l.12,0,.66-.12.17,0,.13,0a6.57,6.57,0,0,1,.66-.09l.08.06.11.1.33.27.14.11.09.07.33.25.14.1.15.11.28.2.14.09.19.13.24.16.14.09.2.12.21.13.14.09.16.09.21.12.17.1.17.09.14.08.42.21.68.32.25.1.2.09.26.11.28.11.22.09.24.09.31.12.24.09.21.07.37.13.24.08.2.06.46.15.17.05.2.06.5.15.16,0,.21.06.51.13.19.06.13,0h0v.05q0,.45-.12.9s0,0,0,0L48.89,17l-.08-.07-.09-.07-.09,0-.11-.05h0l-.06,0a.5.5,0,0,0-.13,0H48l-.17,0h-.07l-.25.07h0a2.13,2.13,0,0,0-.46.2L47,17l-.05,0,0,0a1.07,1.07,0,0,0-.22.15l-.09.09,0,.06,0,0a1.45,1.45,0,0,0-.16.18.47.47,0,0,0-.07.12.25.25,0,0,0,0,.07l0,.06L46,18a.94.94,0,0,0-.06.15.36.36,0,0,0,0,.09l0,.07-.09.23a1.8,1.8,0,0,1-.05.19.29.29,0,0,1,0,.09l0,.09c0,.09,0,.17-.07.27l0,.23,0,.2C45.58,19.72,45.56,19.82,45.55,19.92Zm.35,5.91a3.7,3.7,0,0,0,.42.46.85.85,0,0,1-.24,0c-.09,0-.19,0-.19-.27A1.69,1.69,0,0,0,45.9,25.83Zm.24-.36a.67.67,0,0,1,.21-.06,1.48,1.48,0,0,0,1.19-.61,2.36,2.36,0,0,0,.27-1.19l0-.4a1.49,1.49,0,0,1,.47-1.1,1.32,1.32,0,0,1,.8-.18h.11l0,.58c0,.23,0,.47,0,.71,0,.56.05,1.15.06,1.69a9.29,9.29,0,0,1,0,1,1.72,1.72,0,0,0-1.11-.32l-.36,0A2,2,0,0,0,47,26l-.3.18a0,0,0,0,0,0,0,2.45,2.45,0,0,1-.5-.66Zm3.32-5c0-.38-.06-.76-.08-1.13v-.12c0-.61-.08-1.2-.11-1.68v0c.07-.4.14-.83.19-1.29h0l.44.11.14,0,.45.11.17,0,.45.1.2,0,.43.09.27.06.4.08.22,0,.47.1.55.1h.05l.13,0,.77.14.8.15h.05a29.14,29.14,0,0,0,2.95.47q.63.06,1.14.06A5.29,5.29,0,0,0,63,17c.12-.09.23-.19.34-.29,1.46-1.45,1.21-4.51,1.09-6,0-.17,0-.37-.07-.58a.36.36,0,0,1,0-.11l0-.14s0-.07,0-.1c.65.28,1.3.54,1.73.71,5.6,2.78,10.79,5.71,10.79,8.25a2.91,2.91,0,0,0,0,.31c-.44,1.72-3.05,2.6-7.76,2.6h-.32a22.82,22.82,0,0,1-5.13-.84,31.21,31.21,0,0,0-3.66-.75,29.46,29.46,0,0,0-3.41-.2,38.32,38.32,0,0,0-4.55.29C51.1,20.29,50.26,20.37,49.46,20.44ZM45.81,21.8c0-.26,0-.54,0-.82h0l1.07,0H47l.86,0,0,0a.71.71,0,0,1-.08.15,1.48,1.48,0,0,1-.13.21l0,0a.24.24,0,0,1-.06.09,1.39,1.39,0,0,1-.15.19l0,.05-.05.06c-.06.07-.14.14-.2.2l0,0,0,0a2.86,2.86,0,0,1-.3.22l0,0,0,0-.24.13-.09,0-.05,0h0l-.21.08-.11,0h0l-.09,0c0-.25,0-.51,0-.78h-.06Z"/></g></g></svg>