<svg xmlns="http://www.w3.org/2000/svg" viewBox="0 0 43.04 37.94"><defs><style>.cls-1{fill:#caeaed;}.cls-2{fill:#96c1cc;}.cls-3{fill:#a6d4e0;}</style></defs><title>Recurso 7</title><g id="Capa_2" data-name="Capa 2"><g id="Casas"><ellipse class="cls-1" cx="21.52" cy="33.9" rx="21.52" ry="4.03"/><rect class="cls-2" x="32.26" y="22.71" width="1.39" height="10.01"/><path class="cls-1" d="M40.23,13.41a3.53,3.53,0,0,0-2.14-3.24,4.47,4.47,0,0,0-.29-6.7,1.79,1.79,0,0,0,0-.23A3.23,3.23,0,0,0,32.2,1.06a3.24,3.24,0,0,0-5,2,4.56,4.56,0,0,0,0,7.8,4.57,4.57,0,0,0,1.7,8.71,2.79,2.79,0,0,0,3.79,4.1,2.48,2.48,0,0,0,4-2,1.36,1.36,0,0,0,0-.2,3.26,3.26,0,0,0,1.92-5.17A3.52,3.52,0,0,0,40.23,13.41Z"/><rect class="cls-2" x="9.69" y="22.71" width="1.39" height="10.01"/><path class="cls-1" d="M17.66,13.41a3.53,3.53,0,0,0-2.14-3.24,4.47,4.47,0,0,0-.29-6.7,1.79,1.79,0,0,0,0-.23A3.24,3.24,0,0,0,12,0,3.19,3.19,0,0,0,9.63,1.06a3.24,3.24,0,0,0-5,2,4.56,4.56,0,0,0,0,7.8,4.57,4.57,0,0,0,1.7,8.71,2.79,2.79,0,0,0,1.93,4.81,2.75,2.75,0,0,0,1.85-.71,2.49,2.49,0,0,0,4-2c0-.07,0-.13,0-.2A3.27,3.27,0,0,0,16,16.37,3.52,3.52,0,0,0,17.66,13.41Z"/><rect class="cls-2" x="21.96" y="24.47" width="1.39" height="10.01"/><path class="cls-3" d="M29.93,15.17a3.53,3.53,0,0,0-2.14-3.24,4.48,4.48,0,0,0-.29-6.71,1.66,1.66,0,0,0,0-.22A3.24,3.24,0,0,0,21.9,2.82a3.2,3.2,0,0,0-1.79-.54,3.25,3.25,0,0,0-3.17,2.57,4.57,4.57,0,0,0,0,7.81,4.57,4.57,0,0,0,1.7,8.71,2.79,2.79,0,0,0,3.79,4.09,2.43,2.43,0,0,0,1.51.53,2.49,2.49,0,0,0,2.49-2.49,1.36,1.36,0,0,0,0-.2A3.28,3.28,0,0,0,29,20.09a3.2,3.2,0,0,0-.67-2A3.51,3.51,0,0,0,29.93,15.17Z"/></g></g></svg>