<svg xmlns="http://www.w3.org/2000/svg" viewBox="0 0 39.31 37.18"><defs><style>.cls-1{fill:#caeaed;}.cls-2{fill:#72b0c1;}.cls-3{fill:#a6d4e0;}</style></defs><title>Recurso 2</title><g id="Capa_2" data-name="Capa 2"><g id="Casas"><ellipse class="cls-1" cx="20.57" cy="32.43" rx="18.74" ry="4.74"/><rect class="cls-2" x="26.86" y="26.77" width="2.63" height="4.96"/><path class="cls-1" d="M27.86.27,22.91,7.4l1.54,1-4,4.9,2.78.43-4.38,5.77,2.85.64L17.45,25S29,30.05,39.31,25l-3.16-5.32,2-.26-4.21-6h2.62l-4.68-6,1.72-.47L28.9.27A.64.64,0,0,0,27.86.27Z"/><rect class="cls-2" x="9.42" y="26.77" width="2.63" height="4.96"/><path class="cls-1" d="M10.41.27,5.47,7.4,7,8.37l-4,4.9,2.79.43L1.39,19.47l2.85.64L0,25s11.55,5.07,21.86,0L18.7,19.66l2-.26-4.22-6h2.63l-4.68-6,1.71-.47L11.45.27A.64.64,0,0,0,10.41.27Z"/><rect class="cls-2" x="18.54" y="29.25" width="2.63" height="4.96"/><path class="cls-3" d="M19.53,2.76,14.59,9.88l1.54,1-4,4.89,2.78.43L10.51,22l2.85.64L8.68,27.67s10.91,5.37,22.53,0l-3.38-5.55,2-.26-4.21-6h2.62l-4.68-6,1.71-.47L20.58,2.75A.64.64,0,0,0,19.53,2.76Z"/></g></g></svg>