<svg xmlns="http://www.w3.org/2000/svg" viewBox="0 0 12.21 11.64"><defs><style>.cls-1{fill:#dadada;}</style></defs><title>puesto</title><g id="Capa_2" data-name="Capa 2"><g id="Capa_2-2" data-name="Capa 2"><g id="hover-contratacion"><path class="cls-1" d="M11.55,2.23H.67A.67.67,0,0,0,0,2.89V5.16A1.63,1.63,0,0,0,1.63,6.79h9a1.63,1.63,0,0,0,1.63-1.63V2.89A.66.66,0,0,0,11.55,2.23Z"/><path class="cls-1" d="M4.68,1.17A.42.42,0,0,1,5.1.74h2a.43.43,0,0,1,.43.43v.51h.9V.87A.87.87,0,0,0,7.58,0H4.63a.87.87,0,0,0-.88.87v.81h.93Z"/><rect class="cls-1" x="5.37" y="7.54" width="1.48" height="1.48" rx="0.17" ry="0.17"/><path class="cls-1" d="M10.26,7.53H7.35a.28.28,0,0,1,0,.09V9.16a.31.31,0,0,1-.3.31H5.15a.31.31,0,0,1-.31-.31V7.62a.29.29,0,0,1,0-.09H2a2.52,2.52,0,0,1-.77-.11L.52,7.2v3.57a.87.87,0,0,0,.87.87h9.43a.87.87,0,0,0,.86-.87V7.2l-.82.25A2.47,2.47,0,0,1,10.26,7.53Z"/></g></g></g></svg>