<svg xmlns="http://www.w3.org/2000/svg" viewBox="0 0 10.9 13.66"><defs><style>.cls-1{fill:#dadada;}</style></defs><title>ubicacion</title><g id="Capa_2" data-name="Capa 2"><g id="Capa_2-2" data-name="Capa 2"><g id="hover-contratacion"><path class="cls-1" d="M5.26,0A5.47,5.47,0,0,0,0,4.92,5.12,5.12,0,0,0,.1,6.49h0s0,.06,0,.17A5.71,5.71,0,0,0,.5,7.74a15.87,15.87,0,0,0,4.65,5.82.48.48,0,0,0,.6,0A15.79,15.79,0,0,0,10.4,7.74a5.83,5.83,0,0,0,.37-1.09c0-.1,0-.17,0-.17h0a5,5,0,0,0,.1-1A5.44,5.44,0,0,0,5.26,0Zm.19,8.16A2.65,2.65,0,1,1,8.1,5.51,2.65,2.65,0,0,1,5.45,8.16Z"/></g></g></g></svg>